<svg xmlns="http://www.w3.org/2000/svg" width="54" height="54" viewBox="0 0 54 54" fill="none">
  <path d="M26.9723 1C26.0401 1 25.1086 1.05011 24.1817 1.15001C23.3322 1.23679 22.4931 1.3791 21.6653 1.55178C21.5051 1.58529 21.3448 1.62065 21.1845 1.65764C16.3071 2.76814 11.8534 5.26193 8.35754 8.83997C8.03246 9.17318 7.71421 9.51626 7.40302 9.86911C-2.04021 20.7103 -0.90694 37.154 9.93434 46.5973C20.3134 55.638 35.9366 55.0364 45.5899 45.2245C45.9156 44.8913 46.2337 44.5482 46.5444 44.1954C50.7118 39.4494 53.0084 33.3482 53.0047 27.0322C53.0047 12.6549 41.3496 0.999892 26.9723 1ZM9.51424 10.1416C9.65135 9.99927 9.79366 9.86304 9.93336 9.72507C10.0948 9.56627 10.2553 9.4066 10.4202 9.25301C10.5651 9.11764 10.7143 8.98748 10.8627 8.85559C11.0302 8.7072 11.1968 8.55882 11.3686 8.41564C11.5196 8.28808 11.6749 8.16573 11.8294 8.04251C12.0029 7.90367 12.1765 7.76483 12.3552 7.6312C12.5132 7.51232 12.6737 7.39691 12.8351 7.2841C13.0147 7.15567 13.1952 7.02378 13.3783 6.90403C13.5423 6.79296 13.7081 6.68536 13.8747 6.57862C14.0604 6.45974 14.2469 6.3426 14.4352 6.23152C14.6048 6.13032 14.7754 6.03075 14.9472 5.93302C15.1393 5.82368 15.3321 5.71695 15.526 5.61282C15.6995 5.5203 15.8731 5.42973 16.0466 5.34122C16.2445 5.24143 16.4441 5.14511 16.6445 5.05052C16.8181 4.96809 16.9985 4.88565 17.1773 4.80756C17.3812 4.72078 17.5877 4.63401 17.7943 4.54723C17.9739 4.47347 18.1526 4.40145 18.334 4.33203C18.544 4.2522 18.7566 4.17757 18.9692 4.10295C19.1505 4.0396 19.3319 3.97626 19.5159 3.91638C19.7319 3.84696 19.9497 3.78275 20.1684 3.7194C20.3515 3.66647 20.5329 3.6118 20.7168 3.56234C20.7871 3.54412 20.8574 3.52937 20.9277 3.51115C18.3592 6.00515 16.4531 9.1004 15.3819 12.5166C13.3223 11.9734 11.3285 11.2061 9.43615 10.2284C9.46478 10.198 9.48908 10.1676 9.51424 10.1416ZM8.26642 11.5387C10.3509 12.668 12.5612 13.5477 14.8517 14.1592C13.7289 18.0637 13.1395 22.102 13.0998 26.1645H2.6955C2.88456 20.8074 4.84361 15.664 8.26642 11.5387ZM8.26642 42.5258C4.84382 38.4003 2.88478 33.257 2.6955 27.9H13.0998C13.1395 31.9624 13.7288 36.0008 14.8517 39.9052C12.5613 40.517 10.351 41.3966 8.26642 42.5258ZM20.7116 50.5056C20.5363 50.4613 20.355 50.4041 20.1745 50.3511C19.9549 50.2869 19.7345 50.2227 19.5176 50.1524C19.3345 50.0934 19.154 50.0301 18.9735 49.9667C18.7601 49.893 18.5466 49.8175 18.3357 49.7368C18.1552 49.6682 17.9774 49.5962 17.7986 49.5233C17.5912 49.4365 17.3838 49.3498 17.1782 49.263C17.0011 49.1849 16.825 49.1045 16.6497 49.0218C16.4475 48.9263 16.2462 48.8291 16.0423 48.7285C15.8687 48.6417 15.6952 48.5549 15.5216 48.4603C15.3255 48.3553 15.1312 48.2477 14.9368 48.1367C14.7632 48.0403 14.5984 47.9414 14.4309 47.8408C14.24 47.7262 14.0525 47.6082 13.8651 47.4876C13.7002 47.3826 13.5354 47.2759 13.3731 47.1665C13.1883 47.0416 13.0052 46.9114 12.8238 46.7812C12.665 46.6676 12.5062 46.5539 12.35 46.4341C12.1704 46.2988 11.9943 46.1591 11.819 46.0185C11.6654 45.8961 11.5127 45.7747 11.3625 45.6488C11.189 45.5048 11.0215 45.3547 10.8532 45.2054C10.7057 45.0744 10.5573 44.9451 10.4132 44.8115C10.2475 44.657 10.087 44.4965 9.92555 44.3377C9.78585 44.1997 9.64354 44.0635 9.50643 43.922C9.48127 43.8951 9.45697 43.8674 9.43181 43.8413C11.324 42.8632 13.3179 42.0955 15.3776 41.5522C16.4489 44.9683 18.3549 48.0634 20.9234 50.5577C20.8531 50.5394 20.7819 50.5247 20.7116 50.5056ZM26.1047 51.2605C22.3916 50.7329 19.1367 46.8576 17.0888 41.1348C20.0495 40.4719 23.0709 40.1162 26.1047 40.0736V51.2605ZM26.1047 38.3381C22.8864 38.3804 19.6817 38.7626 16.5438 39.4783C15.4543 35.7137 14.8795 31.8188 14.8353 27.9H26.1047V38.3381ZM26.1047 26.1645H14.8353C14.8794 22.2456 15.4542 18.3508 16.5438 14.5862C19.6817 15.3017 22.8865 15.684 26.1047 15.7264V26.1645ZM26.1047 13.9909C23.0708 13.9486 20.0495 13.5929 17.0888 12.9296C19.1367 7.20687 22.3916 3.33152 26.1047 2.80393V13.9909ZM45.6784 11.5387C49.101 15.6641 51.06 20.8075 51.2493 26.1645H40.845C40.8053 22.102 40.216 18.0637 39.0931 14.1592C41.3835 13.5474 43.5938 12.6678 45.6784 11.5387ZM33.2262 3.558C33.4085 3.60313 33.5898 3.6604 33.7703 3.71333C33.9899 3.77754 34.2103 3.84176 34.4272 3.91204C34.6103 3.97105 34.7908 4.0344 34.9713 4.09774C35.1847 4.1715 35.3982 4.24699 35.6091 4.32769C35.7896 4.39624 35.9674 4.46827 36.1462 4.54116C36.3536 4.62793 36.561 4.71471 36.7666 4.80148C36.9437 4.87958 37.1198 4.95995 37.2951 5.04271C37.4973 5.13817 37.6986 5.23535 37.9025 5.33601C38.0761 5.42279 38.2496 5.50956 38.4232 5.60415C38.6193 5.70914 38.8137 5.81674 39.008 5.92781C39.1816 6.02413 39.3464 6.12306 39.5139 6.22372C39.7048 6.33826 39.8923 6.45627 40.0797 6.57689C40.2446 6.68188 40.4094 6.78862 40.5717 6.89795C40.7565 7.02291 40.9388 7.1522 41.1201 7.28236C41.2798 7.39604 41.4386 7.51058 41.5956 7.62946C41.7744 7.76396 41.9497 7.90367 42.1258 8.04424C42.2786 8.16573 42.4321 8.28721 42.5823 8.4139C42.7558 8.55795 42.9233 8.70807 43.0916 8.85732C43.2391 8.98835 43.3875 9.11764 43.5316 9.25128C43.6973 9.40574 43.8578 9.56627 44.0192 9.72507C44.159 9.86304 44.3013 9.99927 44.4384 10.1407C44.4635 10.1676 44.4878 10.1954 44.513 10.2214C42.6208 11.1996 40.6269 11.9672 38.5672 12.5105C37.4938 9.094 35.5853 5.99908 33.0145 3.50594C33.0848 3.52416 33.156 3.53891 33.2262 3.558ZM27.8401 2.80393C31.5532 3.33152 34.8081 7.20687 36.856 12.9296C33.8953 13.5926 30.8739 13.9483 27.8401 13.9909V2.80393ZM27.8401 15.7264C31.0584 15.6841 34.2631 15.3018 37.401 14.5862C38.4905 18.3508 39.0653 22.2456 39.1096 26.1645H27.8401V15.7264ZM27.8401 27.9H39.1096C39.0654 31.8188 38.4906 35.7137 37.401 39.4783C34.2631 38.7627 31.0584 38.3805 27.8401 38.3381V27.9ZM27.8401 51.2605V40.0736C30.874 40.1159 33.8953 40.4715 36.856 41.1348C34.8081 46.8576 31.5532 50.7329 27.8401 51.2605ZM44.4306 43.9229C44.2935 44.0643 44.152 44.2006 44.0123 44.3385C43.8509 44.4973 43.6895 44.6579 43.5238 44.8123C43.3797 44.9468 43.2313 45.0727 43.0838 45.2071C42.9155 45.3564 42.748 45.5057 42.5762 45.6497C42.4243 45.7764 42.2699 45.8987 42.1154 46.022C41.9419 46.1608 41.7683 46.2996 41.5896 46.4333C41.4316 46.5522 41.2711 46.6676 41.1097 46.7804C40.9301 46.9088 40.7496 47.0407 40.5665 47.1604C40.4025 47.2715 40.2368 47.3791 40.0701 47.485C39.8844 47.6047 39.6973 47.7205 39.5087 47.8321C39.3352 47.9336 39.1694 48.0325 38.9985 48.1306C38.8064 48.2399 38.6132 48.3466 38.4188 48.4508C38.2453 48.5433 38.0717 48.6339 37.8982 48.7224C37.7003 48.8222 37.5008 48.9185 37.3003 49.0131C37.1268 49.0955 36.9463 49.178 36.7675 49.256C36.5636 49.3428 36.3571 49.4296 36.1505 49.5164C35.9709 49.5893 35.7922 49.6622 35.6117 49.7307C35.3999 49.8114 35.1873 49.8869 34.9739 49.9607C34.7934 50.024 34.6129 50.0873 34.4298 50.1464C34.2129 50.2166 33.9959 50.2809 33.7747 50.3442C33.5933 50.398 33.4111 50.4518 33.228 50.5013C33.1577 50.5195 33.0874 50.5342 33.0171 50.5525C35.5856 48.0584 37.4917 44.9632 38.5629 41.547C40.6225 42.0902 42.6163 42.8575 44.5087 43.8352C44.48 43.8665 44.4557 43.8969 44.4306 43.9229ZM45.6784 42.5258C43.5939 41.3964 41.3836 40.5168 39.0931 39.9052C40.2159 36.0008 40.8053 31.9624 40.845 27.9H51.2493C51.0603 33.257 49.1012 38.4005 45.6784 42.5258Z" fill="url(#paint0_linear_1760_995)" stroke="url(#paint1_linear_1760_995)"/>
  <defs>
    <linearGradient id="paint0_linear_1760_995" x1="1" y1="27" x2="53.0047" y2="27" gradientUnits="userSpaceOnUse">
      <stop stop-color="#4A4EBD"/>
      <stop offset="1" stop-color="#222457"/>
    </linearGradient>
    <linearGradient id="paint1_linear_1760_995" x1="1" y1="27" x2="53.0047" y2="27" gradientUnits="userSpaceOnUse">
      <stop stop-color="#4A4EBD"/>
      <stop offset="1" stop-color="#222457"/>
    </linearGradient>
  </defs>
</svg>