<svg xmlns="http://www.w3.org/2000/svg" width="60" height="60" viewBox="0 0 60 60" fill="none">
  <g clip-path="url(#clip0_1760_973)">
    <path d="M59.4851 41.1778L54.8378 36.5304V20.5893L57.8719 19.4954C58.5684 19.2442 59.0328 18.5837 59.0334 17.8431C59.034 17.1028 58.5705 16.4413 57.8742 16.1893L30.1151 6.13627C29.7286 5.99624 29.3047 5.99624 28.9182 6.13627L1.15924 16.1893C0.465669 16.4405 0.00282306 17.0979 1.08254e-05 17.8355C-0.00256705 18.5731 0.455475 19.2339 1.14705 19.4901L11.3917 23.2851V34.8687C11.3917 35.2282 11.5018 35.5792 11.7074 35.874C11.8205 36.0361 12.8916 37.4989 15.634 38.8792C19.0986 40.6232 23.6427 41.5076 29.1399 41.5076C34.6331 41.5076 39.2002 40.6251 42.7142 38.8845C45.4836 37.5127 46.5904 36.0652 46.7075 35.9048C46.9269 35.604 47.0451 35.2413 47.0451 34.8689V23.3986L51.3226 21.8564V36.5304L46.6752 41.1778C46.3456 41.5075 46.1603 41.9545 46.1603 42.4206C46.1603 42.8867 46.3455 43.3339 46.6752 43.6634L51.3226 48.3107V52.21C51.3226 53.1807 52.1096 53.9676 53.0803 53.9676C54.051 53.9676 54.8379 53.1807 54.8379 52.21V48.3107L59.4853 43.6634C60.1717 42.9772 60.1717 41.8641 59.4851 41.1778ZM29.5167 9.65824L52.1037 17.8382L29.1482 26.1142L6.86783 17.8606L29.5167 9.65824ZM43.5297 34.1682C37.521 39.575 19.6659 38.955 14.9069 34.1858V24.5874L28.5293 29.6337C28.7455 29.668 28.9496 29.8544 29.736 29.6391L43.5298 24.6662L43.5297 34.1682ZM53.0802 45.0972L50.4035 42.4206L53.0802 39.744L55.7567 42.4206L53.0802 45.0972Z" fill="url(#paint0_linear_1760_973)"/>
  </g>
  <defs>
    <linearGradient id="paint0_linear_1760_973" x1="0" y1="29.9994" x2="60.0001" y2="29.9994" gradientUnits="userSpaceOnUse">
      <stop stop-color="#4A4EBD"/>
      <stop offset="1" stop-color="#222457"/>
    </linearGradient>
    <clipPath id="clip0_1760_973">
      <rect width="60" height="60" fill="white"/>
    </clipPath>
  </defs>
</svg>