<svg xmlns="http://www.w3.org/2000/svg" width="56" height="56" viewBox="0 0 56 56" fill="none">
  <path d="M51.2409 34.5718L51.1513 34.6719L51.2409 34.772C51.9983 35.6174 52.4594 36.7327 52.4594 37.9531C52.4594 39.1735 51.9983 40.2889 51.2409 41.1343L51.1513 41.2344L51.2409 41.3345C51.9983 42.1799 52.4594 43.2952 52.4594 44.5156C52.4594 46.7124 50.9665 48.5675 48.943 49.12L48.7811 49.1642L48.8431 49.3201C49.0593 49.8638 49.1781 50.4575 49.1781 51.0781C49.1781 53.7089 47.037 55.85 44.4062 55.85H30.6622C28.7347 55.85 26.8301 55.5409 25.0025 54.9313L24.955 55.0736L25.0024 54.9313L19.3652 53.0522L19.2396 53.0104L19.1825 53.1298C18.4134 54.738 16.7716 55.85 14.875 55.85H5.03125C4.20847 55.85 3.54063 55.1822 3.54063 54.3594V24.8281C3.54063 24.0053 4.20847 23.3375 5.03125 23.3375H14.875C16.8892 23.3375 18.6149 24.5927 19.3139 26.362L19.362 26.4836L19.489 26.4526C21.593 25.9392 23.6418 24.2776 25.3165 22.1325C26.9934 19.9844 28.3102 17.3326 28.9418 14.8075L28.9418 14.8075L29.8354 11.232C30.0013 10.5682 30.5975 10.1031 31.2812 10.1031H32.9219C36.4572 10.1031 39.3344 12.9803 39.3344 16.5156V18.1552C39.3344 19.7755 38.9324 23.5687 37.9922 26.4218L37.9273 26.6187H38.1347H47.6875C50.3182 26.6187 52.4594 28.7599 52.4594 31.3906C52.4594 32.611 51.9983 33.7264 51.2409 34.5718ZM6.52187 52.7188V52.8688H6.67188H14.875C15.8624 52.8688 16.6656 52.0655 16.6656 51.0781V28.1094C16.6656 27.122 15.8624 26.3188 14.875 26.3188H6.67188H6.52187V26.4688V52.7188ZM19.6469 49.8958V50.0039L19.7494 50.0381L25.9444 52.1031C25.9444 52.1031 25.9444 52.1031 25.9444 52.1031C27.468 52.6113 29.0558 52.8688 30.6622 52.8688H44.4062C45.3936 52.8688 46.1969 52.0655 46.1969 51.0781C46.1969 50.0908 45.3936 49.2875 44.4062 49.2875C43.5835 49.2875 42.9156 48.6197 42.9156 47.7969C42.9156 46.9741 43.5835 46.3063 44.4062 46.3063H47.6875C48.6749 46.3063 49.4781 45.503 49.4781 44.5156C49.4781 43.5283 48.6749 42.725 47.6875 42.725H44.4062C43.5835 42.725 42.9156 42.0572 42.9156 41.2344C42.9156 40.4116 43.5835 39.7437 44.4062 39.7437H47.6875C48.6749 39.7437 49.4781 38.9405 49.4781 37.9531C49.4781 36.9657 48.6749 36.1625 47.6875 36.1625H44.4062C43.5835 36.1625 42.9156 35.4947 42.9156 34.6719C42.9156 33.8491 43.5835 33.1812 44.4062 33.1812H47.6875C48.6749 33.1812 49.4781 32.378 49.4781 31.3906C49.4781 30.4032 48.6749 29.6 47.6875 29.6H31.2812C30.4585 29.6 29.7906 28.9322 29.7906 28.1094C29.7906 27.2866 30.4585 26.6187 31.2812 26.6187H34.6325H34.728L34.7684 26.5323C35.2177 25.5711 35.6131 24.0276 35.896 22.4575C36.1794 20.8851 36.3531 19.2686 36.3531 18.1552V16.5156C36.3531 14.6237 34.8138 13.0844 32.9219 13.0844H32.562H32.4449L32.4165 13.198L31.8335 15.531C31.0442 18.6892 29.2551 22.1226 27.0491 24.7111C24.7901 27.3613 22.2993 28.9666 19.7689 29.4473L19.6469 29.4705V29.5947V49.8958Z" fill="url(#paint0_linear_1760_977)" stroke="white" stroke-width="0.3"/>
  <path d="M11.5938 49.4375C12.4998 49.4375 13.2344 48.703 13.2344 47.7969C13.2344 46.8908 12.4998 46.1562 11.5938 46.1562C10.6877 46.1562 9.95312 46.8908 9.95312 47.7969C9.95312 48.703 10.6877 49.4375 11.5938 49.4375Z" fill="url(#paint1_linear_1760_977)"/>
  <path d="M34.5625 0C33.6564 0 32.9219 0.734562 32.9219 1.64062V5.03125C32.9219 5.93731 33.6564 6.67188 34.5625 6.67188C35.4686 6.67188 36.2031 5.93731 36.2031 5.03125V1.64062C36.2031 0.734562 35.4686 0 34.5625 0Z" fill="url(#paint2_linear_1760_977)"/>
  <path d="M27.6014 7.2343L25.2812 4.91413C24.6406 4.27341 23.6017 4.27341 22.961 4.91413C22.3203 5.55485 22.3203 6.59359 22.961 7.2343L25.2812 9.55448C25.9218 10.1951 26.9607 10.1952 27.6014 9.55448C28.2421 8.91376 28.2421 7.87502 27.6014 7.2343Z" fill="url(#paint3_linear_1760_977)"/>
  <path d="M46.1639 4.91413C45.5232 4.27341 44.4844 4.27341 43.8437 4.91413L41.5235 7.2342C40.8828 7.87491 40.8828 8.91365 41.5235 9.55437C42.1641 10.1951 43.203 10.1952 43.8437 9.55448L46.1639 7.2343C46.8046 6.59359 46.8046 5.55485 46.1639 4.91413Z" fill="url(#paint4_linear_1760_977)"/>
  <defs>
    <linearGradient id="paint0_linear_1760_977" x1="3.39062" y1="32.9766" x2="52.6094" y2="32.9766" gradientUnits="userSpaceOnUse">
      <stop stop-color="#4A4EBD"/>
      <stop offset="1" stop-color="#222457"/>
    </linearGradient>
    <linearGradient id="paint1_linear_1760_977" x1="9.95312" y1="47.7969" x2="13.2344" y2="47.7969" gradientUnits="userSpaceOnUse">
      <stop stop-color="#4A4EBD"/>
      <stop offset="1" stop-color="#222457"/>
    </linearGradient>
    <linearGradient id="paint2_linear_1760_977" x1="32.9219" y1="3.33594" x2="36.2031" y2="3.33594" gradientUnits="userSpaceOnUse">
      <stop stop-color="#4A4EBD"/>
      <stop offset="1" stop-color="#222457"/>
    </linearGradient>
    <linearGradient id="paint3_linear_1760_977" x1="22.4805" y1="7.23428" x2="28.0819" y2="7.23428" gradientUnits="userSpaceOnUse">
      <stop stop-color="#4A4EBD"/>
      <stop offset="1" stop-color="#222457"/>
    </linearGradient>
    <linearGradient id="paint4_linear_1760_977" x1="41.043" y1="7.23428" x2="46.6444" y2="7.23428" gradientUnits="userSpaceOnUse">
      <stop stop-color="#4A4EBD"/>
      <stop offset="1" stop-color="#222457"/>
    </linearGradient>
  </defs>
</svg>