<svg xmlns="http://www.w3.org/2000/svg" width="56" height="56" viewBox="0 0 56 56" fill="none">
  <g clip-path="url(#clip0_1760_1000)">
    <mask id="path-1-inside-1_1760_1000" fill="white">
      <path d="M52.3699 47.5288C53.5923 46.3321 54.3529 44.6653 54.3529 42.8235C54.3529 39.1908 51.3975 36.2353 47.7647 36.2353C42.6913 36.2353 39.5326 41.7554 42.0628 46.1176H36.2353V19.7647H47.7647V6.51972C47.7647 3.73619 45.4719 1.50267 42.6857 1.58052C40.0371 1.6531 37.8824 3.89958 37.8824 6.58824V9.88235H33.7019C36.2259 5.53071 33.0835 0 28 0C24.3672 0 21.4118 2.95548 21.4118 6.58824C21.4118 7.7885 21.736 8.91377 22.299 9.884C18.1272 9.91804 14.6438 13.0546 14.1824 17.2083C14.169 17.3295 14.3174 15.9799 13.1765 26.3529C13.1765 29.7151 16.4882 32.2383 19.7647 31.0834V46.1176H13.9372C16.4611 41.766 13.3188 36.2353 8.23529 36.2353C4.60254 36.2353 1.64706 39.1908 1.64706 42.8235C1.64706 44.6653 2.40767 46.3321 3.63023 47.5288C1.4414 49.0105 0 51.5165 0 54.3529V56H56V54.3529C56 51.5165 54.5586 49.0105 52.3699 47.5288ZM44.4706 42.8235C44.4706 41.0072 45.9483 39.5294 47.7647 39.5294C49.5811 39.5294 51.0588 41.0072 51.0588 42.8235C51.0588 44.6399 49.5811 46.1176 47.7647 46.1176C45.9483 46.1176 44.4706 44.6399 44.4706 42.8235ZM29.6471 32.9412H32.9412V46.1176H29.6471V32.9412ZM28 3.29412C29.8164 3.29412 31.2941 4.77186 31.2941 6.58824C31.2941 8.40461 29.8164 9.88235 28 9.88235C26.1836 9.88235 24.7059 8.40461 24.7059 6.58824C24.7059 4.77186 26.1836 3.29412 28 3.29412ZM18.0703 28.068C17.2126 28.0444 16.5106 27.3165 16.4721 26.4293L17.4563 17.5719C17.7347 15.0661 19.846 13.1765 22.3673 13.1765H41.1765V6.58824C41.1765 5.66676 41.894 4.89758 42.776 4.87332C43.7152 4.84784 44.4706 5.59978 44.4706 6.51972V16.4706H32.9412V29.6471H23.0588C23.0588 28.4727 23.0588 20.8571 23.0588 19.7647H19.7647V26.4216C19.7647 27.336 19.0172 28.0908 18.0703 28.068ZM23.0588 32.9412H26.3529V46.1176H23.0588V32.9412ZM4.94118 42.8235C4.94118 41.0072 6.41892 39.5294 8.23529 39.5294C10.0517 39.5294 11.5294 41.0072 11.5294 42.8235C11.5294 44.6399 10.0517 46.1176 8.23529 46.1176C6.41892 46.1176 4.94118 44.6399 4.94118 42.8235ZM3.57631 52.7059C4.256 50.7886 6.08786 49.4118 8.23529 49.4118C10.3827 49.4118 12.2145 50.7886 12.8943 52.7059H3.57631ZM16.3048 52.7059C16.0568 51.4895 15.5399 50.3699 14.819 49.4118H41.181C40.4601 50.3699 39.9432 51.4895 39.6951 52.7059H16.3048ZM43.1057 52.7059C43.7854 50.7886 45.6173 49.4118 47.7647 49.4118C49.9121 49.4118 51.7439 50.7886 52.4237 52.7059H43.1057Z"/>
    </mask>
    <path d="M52.3699 47.5288C53.5923 46.3321 54.3529 44.6653 54.3529 42.8235C54.3529 39.1908 51.3975 36.2353 47.7647 36.2353C42.6913 36.2353 39.5326 41.7554 42.0628 46.1176H36.2353V19.7647H47.7647V6.51972C47.7647 3.73619 45.4719 1.50267 42.6857 1.58052C40.0371 1.6531 37.8824 3.89958 37.8824 6.58824V9.88235H33.7019C36.2259 5.53071 33.0835 0 28 0C24.3672 0 21.4118 2.95548 21.4118 6.58824C21.4118 7.7885 21.736 8.91377 22.299 9.884C18.1272 9.91804 14.6438 13.0546 14.1824 17.2083C14.169 17.3295 14.3174 15.9799 13.1765 26.3529C13.1765 29.7151 16.4882 32.2383 19.7647 31.0834V46.1176H13.9372C16.4611 41.766 13.3188 36.2353 8.23529 36.2353C4.60254 36.2353 1.64706 39.1908 1.64706 42.8235C1.64706 44.6653 2.40767 46.3321 3.63023 47.5288C1.4414 49.0105 0 51.5165 0 54.3529V56H56V54.3529C56 51.5165 54.5586 49.0105 52.3699 47.5288ZM44.4706 42.8235C44.4706 41.0072 45.9483 39.5294 47.7647 39.5294C49.5811 39.5294 51.0588 41.0072 51.0588 42.8235C51.0588 44.6399 49.5811 46.1176 47.7647 46.1176C45.9483 46.1176 44.4706 44.6399 44.4706 42.8235ZM29.6471 32.9412H32.9412V46.1176H29.6471V32.9412ZM28 3.29412C29.8164 3.29412 31.2941 4.77186 31.2941 6.58824C31.2941 8.40461 29.8164 9.88235 28 9.88235C26.1836 9.88235 24.7059 8.40461 24.7059 6.58824C24.7059 4.77186 26.1836 3.29412 28 3.29412ZM18.0703 28.068C17.2126 28.0444 16.5106 27.3165 16.4721 26.4293L17.4563 17.5719C17.7347 15.0661 19.846 13.1765 22.3673 13.1765H41.1765V6.58824C41.1765 5.66676 41.894 4.89758 42.776 4.87332C43.7152 4.84784 44.4706 5.59978 44.4706 6.51972V16.4706H32.9412V29.6471H23.0588C23.0588 28.4727 23.0588 20.8571 23.0588 19.7647H19.7647V26.4216C19.7647 27.336 19.0172 28.0908 18.0703 28.068ZM23.0588 32.9412H26.3529V46.1176H23.0588V32.9412ZM4.94118 42.8235C4.94118 41.0072 6.41892 39.5294 8.23529 39.5294C10.0517 39.5294 11.5294 41.0072 11.5294 42.8235C11.5294 44.6399 10.0517 46.1176 8.23529 46.1176C6.41892 46.1176 4.94118 44.6399 4.94118 42.8235ZM3.57631 52.7059C4.256 50.7886 6.08786 49.4118 8.23529 49.4118C10.3827 49.4118 12.2145 50.7886 12.8943 52.7059H3.57631ZM16.3048 52.7059C16.0568 51.4895 15.5399 50.3699 14.819 49.4118H41.181C40.4601 50.3699 39.9432 51.4895 39.6951 52.7059H16.3048ZM43.1057 52.7059C43.7854 50.7886 45.6173 49.4118 47.7647 49.4118C49.9121 49.4118 51.7439 50.7886 52.4237 52.7059H43.1057Z" fill="url(#paint0_linear_1760_1000)"/>
    <path d="M52.3699 47.5288L52.0901 47.243L51.7401 47.5856L52.1456 47.8601L52.3699 47.5288ZM42.0628 46.1176V46.5176H42.7572L42.4088 45.917L42.0628 46.1176ZM36.2353 46.1176H35.8353V46.5176H36.2353V46.1176ZM36.2353 19.7647V19.3647H35.8353V19.7647H36.2353ZM47.7647 19.7647V20.1647H48.1647V19.7647H47.7647ZM42.6857 1.58052L42.6967 1.98037L42.6969 1.98036L42.6857 1.58052ZM37.8824 9.88235V10.2824H38.2824V9.88235H37.8824ZM33.7019 9.88235L33.3559 9.68167L33.0075 10.2824H33.7019V9.88235ZM22.299 9.884L22.3022 10.284L22.9903 10.2784L22.645 9.68325L22.299 9.884ZM14.1824 17.2083L13.7848 17.1641L13.7848 17.1643L14.1824 17.2083ZM13.1765 26.3529L12.7789 26.3092L12.7765 26.331V26.3529H13.1765ZM19.7647 31.0834H20.1647V30.5183L19.6317 30.7062L19.7647 31.0834ZM19.7647 46.1176V46.5176H20.1647V46.1176H19.7647ZM13.9372 46.1176L13.5912 45.917L13.2428 46.5176H13.9372V46.1176ZM3.63023 47.5288L3.85446 47.8601L4.25999 47.5856L3.91004 47.243L3.63023 47.5288ZM0 56H-0.4V56.4H0V56ZM56 56V56.4H56.4V56H56ZM29.6471 32.9412V32.5412H29.2471V32.9412H29.6471ZM32.9412 32.9412H33.3412V32.5412H32.9412V32.9412ZM32.9412 46.1176V46.5176H33.3412V46.1176H32.9412ZM29.6471 46.1176H29.2471V46.5176H29.6471V46.1176ZM18.0703 28.068L18.0593 28.4678L18.0607 28.4679L18.0703 28.068ZM16.4721 26.4293L16.0746 26.3851L16.0712 26.4157L16.0725 26.4466L16.4721 26.4293ZM17.4563 17.5719L17.8539 17.6161L17.8539 17.6161L17.4563 17.5719ZM41.1765 13.1765V13.5765H41.5765V13.1765H41.1765ZM42.776 4.87332L42.7651 4.47346L42.765 4.47347L42.776 4.87332ZM44.4706 16.4706V16.8706H44.8706V16.4706H44.4706ZM32.9412 16.4706V16.0706H32.5412V16.4706H32.9412ZM32.9412 29.6471V30.0471H33.3412V29.6471H32.9412ZM23.0588 29.6471H22.6588V30.0471H23.0588V29.6471ZM23.0588 19.7647H23.4588V19.3647H23.0588V19.7647ZM19.7647 19.7647V19.3647H19.3647V19.7647H19.7647ZM23.0588 32.9412V32.5412H22.6588V32.9412H23.0588ZM26.3529 32.9412H26.7529V32.5412H26.3529V32.9412ZM26.3529 46.1176V46.5176H26.7529V46.1176H26.3529ZM23.0588 46.1176H22.6588V46.5176H23.0588V46.1176ZM3.57631 52.7059L3.1993 52.5722L3.01012 53.1059H3.57631V52.7059ZM12.8943 52.7059V53.1059H13.4605L13.2713 52.5722L12.8943 52.7059ZM16.3048 52.7059L15.9128 52.7858L15.9781 53.1059H16.3048V52.7059ZM14.819 49.4118V49.0118H14.0175L14.4994 49.6522L14.819 49.4118ZM41.181 49.4118L41.5006 49.6522L41.9825 49.0118H41.181V49.4118ZM39.6951 52.7059V53.1059H40.0218L40.087 52.7858L39.6951 52.7059ZM43.1057 52.7059L42.7287 52.5722L42.5395 53.1059H43.1057V52.7059ZM52.4237 52.7059V53.1059H52.9899L52.8007 52.5722L52.4237 52.7059ZM52.6497 47.8147C53.9454 46.5462 54.7529 44.7777 54.7529 42.8235H53.9529C53.9529 44.5528 53.2392 46.118 52.0901 47.243L52.6497 47.8147ZM54.7529 42.8235C54.7529 38.9699 51.6184 35.8353 47.7647 35.8353V36.6353C51.1765 36.6353 53.9529 39.4117 53.9529 42.8235H54.7529ZM47.7647 35.8353C42.3825 35.8353 39.0322 41.6899 41.7168 46.3183L42.4088 45.917C40.033 41.8208 43.0002 36.6353 47.7647 36.6353V35.8353ZM42.0628 45.7176H36.2353V46.5176H42.0628V45.7176ZM36.6353 46.1176V19.7647H35.8353V46.1176H36.6353ZM36.2353 20.1647H47.7647V19.3647H36.2353V20.1647ZM48.1647 19.7647V6.51972H47.3647V19.7647H48.1647ZM48.1647 6.51972C48.1647 3.51111 45.6861 1.09652 42.6746 1.18067L42.6969 1.98036C45.2576 1.90881 47.3647 3.96126 47.3647 6.51972H48.1647ZM42.6748 1.18067C39.8043 1.25933 37.4824 3.68825 37.4824 6.58824H38.2824C38.2824 4.1109 40.27 2.04687 42.6967 1.98037L42.6748 1.18067ZM37.4824 6.58824V9.88235H38.2824V6.58824H37.4824ZM37.8824 9.48235H33.7019V10.2824H37.8824V9.48235ZM34.0479 10.083C36.7256 5.46627 33.3935 -0.4 28 -0.4V0.4C32.7734 0.4 35.7261 5.59516 33.3559 9.68167L34.0479 10.083ZM28 -0.4C24.1463 -0.4 21.0118 2.73457 21.0118 6.58824H21.8118C21.8118 3.1764 24.5882 0.4 28 0.4V-0.4ZM21.0118 6.58824C21.0118 7.86152 21.3559 9.05574 21.953 10.0847L22.645 9.68325C22.1161 8.7718 21.8118 7.71549 21.8118 6.58824H21.0118ZM22.2957 9.48401C17.9216 9.5197 14.2686 12.8088 13.7848 17.1641L14.5799 17.2524C15.0189 13.3003 18.3328 10.3164 22.3022 10.284L22.2957 9.48401ZM13.7848 17.1643C13.7714 17.2857 13.9198 15.9363 12.7789 26.3092L13.5741 26.3967C14.7151 16.0235 14.5666 17.3733 14.58 17.2522L13.7848 17.1643ZM12.7765 26.3529C12.7765 29.9758 16.3467 32.7123 19.8977 31.4607L19.6317 30.7062C16.6296 31.7644 13.5765 29.4544 13.5765 26.3529H12.7765ZM19.3647 31.0834V46.1176H20.1647V31.0834H19.3647ZM19.7647 45.7176H13.9372V46.5176H19.7647V45.7176ZM14.2832 46.3183C16.9609 41.7016 13.6288 35.8353 8.23529 35.8353V36.6353C13.0087 36.6353 15.9614 41.8304 13.5912 45.917L14.2832 46.3183ZM8.23529 35.8353C4.38163 35.8353 1.24706 38.9699 1.24706 42.8235H2.04706C2.04706 39.4117 4.82346 36.6353 8.23529 36.6353V35.8353ZM1.24706 42.8235C1.24706 44.7777 2.05457 46.5462 3.35042 47.8147L3.91004 47.243C2.76077 46.118 2.04706 44.5528 2.04706 42.8235H1.24706ZM3.406 47.1976C1.11231 48.7503 -0.4 51.3777 -0.4 54.3529H0.4C0.4 51.6552 1.77048 49.2708 3.85446 47.8601L3.406 47.1976ZM-0.4 54.3529V56H0.4V54.3529H-0.4ZM0 56.4H56V55.6H0V56.4ZM56.4 56V54.3529H55.6V56H56.4ZM56.4 54.3529C56.4 51.3777 54.8877 48.7503 52.5941 47.1976L52.1456 47.8601C54.2295 49.2708 55.6 51.6552 55.6 54.3529H56.4ZM44.8706 42.8235C44.8706 41.2281 46.1692 39.9294 47.7647 39.9294V39.1294C45.7274 39.1294 44.0706 40.7862 44.0706 42.8235H44.8706ZM47.7647 39.9294C49.3602 39.9294 50.6588 41.2281 50.6588 42.8235H51.4588C51.4588 40.7862 49.802 39.1294 47.7647 39.1294V39.9294ZM50.6588 42.8235C50.6588 44.419 49.3602 45.7176 47.7647 45.7176V46.5176C49.802 46.5176 51.4588 44.8608 51.4588 42.8235H50.6588ZM47.7647 45.7176C46.1692 45.7176 44.8706 44.419 44.8706 42.8235H44.0706C44.0706 44.8608 45.7274 46.5176 47.7647 46.5176V45.7176ZM29.6471 33.3412H32.9412V32.5412H29.6471V33.3412ZM32.5412 32.9412V46.1176H33.3412V32.9412H32.5412ZM32.9412 45.7176H29.6471V46.5176H32.9412V45.7176ZM30.0471 46.1176V32.9412H29.2471V46.1176H30.0471ZM28 3.69412C29.5955 3.69412 30.8941 4.99277 30.8941 6.58824H31.6941C31.6941 4.55094 30.0373 2.89412 28 2.89412V3.69412ZM30.8941 6.58824C30.8941 8.1837 29.5955 9.48235 28 9.48235V10.2824C30.0373 10.2824 31.6941 8.62553 31.6941 6.58824H30.8941ZM28 9.48235C26.4045 9.48235 25.1059 8.1837 25.1059 6.58824H24.3059C24.3059 8.62553 25.9627 10.2824 28 10.2824V9.48235ZM25.1059 6.58824C25.1059 4.99277 26.4045 3.69412 28 3.69412V2.89412C25.9627 2.89412 24.3059 4.55094 24.3059 6.58824H25.1059ZM18.0813 27.6681C17.4494 27.6507 16.9018 27.1057 16.8718 26.4119L16.0725 26.4466C16.1193 27.5272 16.9759 28.438 18.0593 28.4678L18.0813 27.6681ZM16.8697 26.4734L17.8539 17.6161L17.0587 17.5277L16.0746 26.3851L16.8697 26.4734ZM17.8539 17.6161C18.1097 15.3128 20.0498 13.5765 22.3673 13.5765V12.7765C19.6422 12.7765 17.3596 14.8193 17.0587 17.5278L17.8539 17.6161ZM22.3673 13.5765H41.1765V12.7765H22.3673V13.5765ZM41.5765 13.1765V6.58824H40.7765V13.1765H41.5765ZM41.5765 6.58824C41.5765 5.86758 42.1371 5.29105 42.787 5.27317L42.765 4.47347C41.651 4.50412 40.7765 5.46594 40.7765 6.58824H41.5765ZM42.7868 5.27317C43.4988 5.25386 44.0706 5.82271 44.0706 6.51972H44.8706C44.8706 5.37685 43.9317 4.44183 42.7651 4.47346L42.7868 5.27317ZM44.0706 6.51972V16.4706H44.8706V6.51972H44.0706ZM44.4706 16.0706H32.9412V16.8706H44.4706V16.0706ZM32.5412 16.4706V29.6471H33.3412V16.4706H32.5412ZM32.9412 29.2471H23.0588V30.0471H32.9412V29.2471ZM23.4588 29.6471C23.4588 29.6448 23.4588 29.6424 23.4588 29.6401C23.4588 29.6378 23.4588 29.6354 23.4588 29.633C23.4588 29.6306 23.4588 29.6282 23.4588 29.6258C23.4588 29.6233 23.4588 29.6209 23.4588 29.6184C23.4588 29.6159 23.4588 29.6134 23.4588 29.6108C23.4588 29.6083 23.4588 29.6057 23.4588 29.6031C23.4588 29.6006 23.4588 29.5979 23.4588 29.5953C23.4588 29.5927 23.4588 29.59 23.4588 29.5873C23.4588 29.5847 23.4588 29.582 23.4588 29.5792C23.4588 29.5765 23.4588 29.5737 23.4588 29.571C23.4588 29.5682 23.4588 29.5654 23.4588 29.5626C23.4588 29.5598 23.4588 29.5569 23.4588 29.554C23.4588 29.5512 23.4588 29.5483 23.4588 29.5454C23.4588 29.5424 23.4588 29.5395 23.4588 29.5365C23.4588 29.5336 23.4588 29.5306 23.4588 29.5276C23.4588 29.5246 23.4588 29.5215 23.4588 29.5185C23.4588 29.5154 23.4588 29.5124 23.4588 29.5093C23.4588 29.5062 23.4588 29.503 23.4588 29.4999C23.4588 29.4967 23.4588 29.4936 23.4588 29.4904C23.4588 29.4872 23.4588 29.484 23.4588 29.4807C23.4588 29.4775 23.4588 29.4742 23.4588 29.4709C23.4588 29.4677 23.4588 29.4644 23.4588 29.461C23.4588 29.4577 23.4588 29.4543 23.4588 29.451C23.4588 29.4476 23.4588 29.4442 23.4588 29.4408C23.4588 29.4374 23.4588 29.4339 23.4588 29.4305C23.4588 29.427 23.4588 29.4235 23.4588 29.42C23.4588 29.4165 23.4588 29.413 23.4588 29.4094C23.4588 29.4059 23.4588 29.4023 23.4588 29.3987C23.4588 29.3951 23.4588 29.3915 23.4588 29.3879C23.4588 29.3842 23.4588 29.3806 23.4588 29.3769C23.4588 29.3732 23.4588 29.3695 23.4588 29.3658C23.4588 29.3621 23.4588 29.3583 23.4588 29.3545C23.4588 29.3508 23.4588 29.347 23.4588 29.3432C23.4588 29.3394 23.4588 29.3355 23.4588 29.3317C23.4588 29.3278 23.4588 29.324 23.4588 29.3201C23.4588 29.3162 23.4588 29.3123 23.4588 29.3083C23.4588 29.3044 23.4588 29.3004 23.4588 29.2964C23.4588 29.2925 23.4588 29.2885 23.4588 29.2844C23.4588 29.2804 23.4588 29.2764 23.4588 29.2723C23.4588 29.2682 23.4588 29.2642 23.4588 29.2601C23.4588 29.256 23.4588 29.2518 23.4588 29.2477C23.4588 29.2435 23.4588 29.2394 23.4588 29.2352C23.4588 29.231 23.4588 29.2268 23.4588 29.2226C23.4588 29.2183 23.4588 29.2141 23.4588 29.2098C23.4588 29.2055 23.4588 29.2013 23.4588 29.1969C23.4588 29.1926 23.4588 29.1883 23.4588 29.184C23.4588 29.1796 23.4588 29.1752 23.4588 29.1708C23.4588 29.1665 23.4588 29.162 23.4588 29.1576C23.4588 29.1532 23.4588 29.1487 23.4588 29.1443C23.4588 29.1398 23.4588 29.1353 23.4588 29.1308C23.4588 29.1263 23.4588 29.1218 23.4588 29.1172C23.4588 29.1127 23.4588 29.1081 23.4588 29.1035C23.4588 29.0989 23.4588 29.0943 23.4588 29.0897C23.4588 29.0851 23.4588 29.0804 23.4588 29.0757C23.4588 29.0711 23.4588 29.0664 23.4588 29.0617C23.4588 29.057 23.4588 29.0523 23.4588 29.0475C23.4588 29.0428 23.4588 29.038 23.4588 29.0332C23.4588 29.0285 23.4588 29.0237 23.4588 29.0188C23.4588 29.014 23.4588 29.0092 23.4588 29.0043C23.4588 28.9995 23.4588 28.9946 23.4588 28.9897C23.4588 28.9848 23.4588 28.9799 23.4588 28.975C23.4588 28.97 23.4588 28.9651 23.4588 28.9601C23.4588 28.9551 23.4588 28.9501 23.4588 28.9451C23.4588 28.9401 23.4588 28.9351 23.4588 28.9301C23.4588 28.925 23.4588 28.92 23.4588 28.9149C23.4588 28.9098 23.4588 28.9047 23.4588 28.8996C23.4588 28.8945 23.4588 28.8893 23.4588 28.8842C23.4588 28.879 23.4588 28.8739 23.4588 28.8687C23.4588 28.8635 23.4588 28.8583 23.4588 28.8531C23.4588 28.8478 23.4588 28.8426 23.4588 28.8373C23.4588 28.8321 23.4588 28.8268 23.4588 28.8215C23.4588 28.8162 23.4588 28.8109 23.4588 28.8055C23.4588 28.8002 23.4588 28.7949 23.4588 28.7895C23.4588 28.7841 23.4588 28.7788 23.4588 28.7734C23.4588 28.768 23.4588 28.7625 23.4588 28.7571C23.4588 28.7517 23.4588 28.7462 23.4588 28.7407C23.4588 28.7353 23.4588 28.7298 23.4588 28.7243C23.4588 28.7188 23.4588 28.7132 23.4588 28.7077C23.4588 28.7022 23.4588 28.6966 23.4588 28.691C23.4588 28.6855 23.4588 28.6799 23.4588 28.6743C23.4588 28.6687 23.4588 28.663 23.4588 28.6574C23.4588 28.6518 23.4588 28.6461 23.4588 28.6404C23.4588 28.6348 23.4588 28.6291 23.4588 28.6234C23.4588 28.6176 23.4588 28.6119 23.4588 28.6062C23.4588 28.6004 23.4588 28.5947 23.4588 28.5889C23.4588 28.5831 23.4588 28.5774 23.4588 28.5715C23.4588 28.5657 23.4588 28.5599 23.4588 28.5541C23.4588 28.5482 23.4588 28.5424 23.4588 28.5365C23.4588 28.5306 23.4588 28.5248 23.4588 28.5189C23.4588 28.513 23.4588 28.507 23.4588 28.5011C23.4588 28.4952 23.4588 28.4892 23.4588 28.4833C23.4588 28.4773 23.4588 28.4713 23.4588 28.4653C23.4588 28.4593 23.4588 28.4533 23.4588 28.4473C23.4588 28.4412 23.4588 28.4352 23.4588 28.4291C23.4588 28.4231 23.4588 28.417 23.4588 28.4109C23.4588 28.4048 23.4588 28.3987 23.4588 28.3926C23.4588 28.3865 23.4588 28.3803 23.4588 28.3742C23.4588 28.368 23.4588 28.3619 23.4588 28.3557C23.4588 28.3495 23.4588 28.3433 23.4588 28.3371C23.4588 28.3309 23.4588 28.3247 23.4588 28.3184C23.4588 28.3122 23.4588 28.3059 23.4588 28.2996C23.4588 28.2934 23.4588 28.2871 23.4588 28.2808C23.4588 28.2745 23.4588 28.2682 23.4588 28.2618C23.4588 28.2555 23.4588 28.2492 23.4588 28.2428C23.4588 28.2364 23.4588 28.2301 23.4588 28.2237C23.4588 28.2173 23.4588 28.2109 23.4588 28.2045C23.4588 28.1981 23.4588 28.1916 23.4588 28.1852C23.4588 28.1787 23.4588 28.1723 23.4588 28.1658C23.4588 28.1593 23.4588 28.1528 23.4588 28.1463C23.4588 28.1398 23.4588 28.1333 23.4588 28.1268C23.4588 28.1202 23.4588 28.1137 23.4588 28.1071C23.4588 28.1006 23.4588 28.094 23.4588 28.0874C23.4588 28.0808 23.4588 28.0742 23.4588 28.0676C23.4588 28.061 23.4588 28.0544 23.4588 28.0477C23.4588 28.0411 23.4588 28.0345 23.4588 28.0278C23.4588 28.0211 23.4588 28.0144 23.4588 28.0077C23.4588 28.001 23.4588 27.9943 23.4588 27.9876C23.4588 27.9809 23.4588 27.9742 23.4588 27.9674C23.4588 27.9607 23.4588 27.9539 23.4588 27.9471C23.4588 27.9404 23.4588 27.9336 23.4588 27.9268C23.4588 27.92 23.4588 27.9132 23.4588 27.9063C23.4588 27.8995 23.4588 27.8927 23.4588 27.8858C23.4588 27.879 23.4588 27.8721 23.4588 27.8652C23.4588 27.8584 23.4588 27.8515 23.4588 27.8446C23.4588 27.8377 23.4588 27.8307 23.4588 27.8238C23.4588 27.8169 23.4588 27.8099 23.4588 27.803C23.4588 27.796 23.4588 27.7891 23.4588 27.7821C23.4588 27.7751 23.4588 27.7681 23.4588 27.7611C23.4588 27.7541 23.4588 27.7471 23.4588 27.7401C23.4588 27.7331 23.4588 27.726 23.4588 27.719C23.4588 27.7119 23.4588 27.7049 23.4588 27.6978C23.4588 27.6907 23.4588 27.6836 23.4588 27.6765C23.4588 27.6694 23.4588 27.6623 23.4588 27.6552C23.4588 27.6481 23.4588 27.641 23.4588 27.6338C23.4588 27.6267 23.4588 27.6195 23.4588 27.6123C23.4588 27.6052 23.4588 27.598 23.4588 27.5908C23.4588 27.5836 23.4588 27.5764 23.4588 27.5692C23.4588 27.562 23.4588 27.5548 23.4588 27.5475C23.4588 27.5403 23.4588 27.533 23.4588 27.5258C23.4588 27.5185 23.4588 27.5113 23.4588 27.504C23.4588 27.4967 23.4588 27.4894 23.4588 27.4821C23.4588 27.4748 23.4588 27.4675 23.4588 27.4602C23.4588 27.4528 23.4588 27.4455 23.4588 27.4382C23.4588 27.4308 23.4588 27.4235 23.4588 27.4161C23.4588 27.4087 23.4588 27.4013 23.4588 27.394C23.4588 27.3866 23.4588 27.3792 23.4588 27.3718C23.4588 27.3644 23.4588 27.3569 23.4588 27.3495C23.4588 27.3421 23.4588 27.3346 23.4588 27.3272C23.4588 27.3197 23.4588 27.3123 23.4588 27.3048C23.4588 27.2973 23.4588 27.2898 23.4588 27.2824C23.4588 27.2749 23.4588 27.2674 23.4588 27.2598C23.4588 27.2523 23.4588 27.2448 23.4588 27.2373C23.4588 27.2297 23.4588 27.2222 23.4588 27.2147C23.4588 27.2071 23.4588 27.1995 23.4588 27.192C23.4588 27.1844 23.4588 27.1768 23.4588 27.1692C23.4588 27.1616 23.4588 27.154 23.4588 27.1464C23.4588 27.1388 23.4588 27.1312 23.4588 27.1236C23.4588 27.1159 23.4588 27.1083 23.4588 27.1007C23.4588 27.093 23.4588 27.0854 23.4588 27.0777C23.4588 27.07 23.4588 27.0624 23.4588 27.0547C23.4588 27.047 23.4588 27.0393 23.4588 27.0316C23.4588 27.0239 23.4588 27.0162 23.4588 27.0085C23.4588 27.0007 23.4588 26.993 23.4588 26.9853C23.4588 26.9775 23.4588 26.9698 23.4588 26.962C23.4588 26.9543 23.4588 26.9465 23.4588 26.9387C23.4588 26.931 23.4588 26.9232 23.4588 26.9154C23.4588 26.9076 23.4588 26.8998 23.4588 26.892C23.4588 26.8842 23.4588 26.8764 23.4588 26.8686C23.4588 26.8607 23.4588 26.8529 23.4588 26.8451C23.4588 26.8372 23.4588 26.8294 23.4588 26.8215C23.4588 26.8137 23.4588 26.8058 23.4588 26.7979C23.4588 26.7901 23.4588 26.7822 23.4588 26.7743C23.4588 26.7664 23.4588 26.7585 23.4588 26.7506C23.4588 26.7427 23.4588 26.7348 23.4588 26.7269C23.4588 26.7189 23.4588 26.711 23.4588 26.7031C23.4588 26.6951 23.4588 26.6872 23.4588 26.6792C23.4588 26.6713 23.4588 26.6633 23.4588 26.6554C23.4588 26.6474 23.4588 26.6394 23.4588 26.6315C23.4588 26.6235 23.4588 26.6155 23.4588 26.6075C23.4588 26.5995 23.4588 26.5915 23.4588 26.5835C23.4588 26.5755 23.4588 26.5675 23.4588 26.5594C23.4588 26.5514 23.4588 26.5434 23.4588 26.5353C23.4588 26.5273 23.4588 26.5193 23.4588 26.5112C23.4588 26.5031 23.4588 26.4951 23.4588 26.487C23.4588 26.479 23.4588 26.4709 23.4588 26.4628C23.4588 26.4547 23.4588 26.4466 23.4588 26.4386C23.4588 26.4305 23.4588 26.4224 23.4588 26.4143C23.4588 26.4061 23.4588 26.398 23.4588 26.3899C23.4588 26.3818 23.4588 26.3737 23.4588 26.3655C23.4588 26.3574 23.4588 26.3493 23.4588 26.3411C23.4588 26.333 23.4588 26.3248 23.4588 26.3167C23.4588 26.3085 23.4588 26.3004 23.4588 26.2922C23.4588 26.284 23.4588 26.2759 23.4588 26.2677C23.4588 26.2595 23.4588 26.2513 23.4588 26.2431C23.4588 26.2349 23.4588 26.2267 23.4588 26.2185C23.4588 26.2103 23.4588 26.2021 23.4588 26.1939C23.4588 26.1857 23.4588 26.1775 23.4588 26.1692C23.4588 26.161 23.4588 26.1528 23.4588 26.1445C23.4588 26.1363 23.4588 26.1281 23.4588 26.1198C23.4588 26.1116 23.4588 26.1033 23.4588 26.095C23.4588 26.0868 23.4588 26.0785 23.4588 26.0703C23.4588 26.062 23.4588 26.0537 23.4588 26.0454C23.4588 26.0372 23.4588 26.0289 23.4588 26.0206C23.4588 26.0123 23.4588 26.004 23.4588 25.9957C23.4588 25.9874 23.4588 25.9791 23.4588 25.9708C23.4588 25.9625 23.4588 25.9542 23.4588 25.9458C23.4588 25.9375 23.4588 25.9292 23.4588 25.9209C23.4588 25.9126 23.4588 25.9042 23.4588 25.8959C23.4588 25.8875 23.4588 25.8792 23.4588 25.8709C23.4588 25.8625 23.4588 25.8542 23.4588 25.8458C23.4588 25.8375 23.4588 25.8291 23.4588 25.8207C23.4588 25.8124 23.4588 25.804 23.4588 25.7956C23.4588 25.7873 23.4588 25.7789 23.4588 25.7705C23.4588 25.7621 23.4588 25.7538 23.4588 25.7454C23.4588 25.737 23.4588 25.7286 23.4588 25.7202C23.4588 25.7118 23.4588 25.7034 23.4588 25.695C23.4588 25.6866 23.4588 25.6782 23.4588 25.6698C23.4588 25.6614 23.4588 25.653 23.4588 25.6445C23.4588 25.6361 23.4588 25.6277 23.4588 25.6193C23.4588 25.6109 23.4588 25.6024 23.4588 25.594C23.4588 25.5856 23.4588 25.5771 23.4588 25.5687C23.4588 25.5603 23.4588 25.5518 23.4588 25.5434C23.4588 25.5349 23.4588 25.5265 23.4588 25.5181C23.4588 25.5096 23.4588 25.5012 23.4588 25.4927C23.4588 25.4842 23.4588 25.4758 23.4588 25.4673C23.4588 25.4589 23.4588 25.4504 23.4588 25.4419C23.4588 25.4335 23.4588 25.425 23.4588 25.4165C23.4588 25.4081 23.4588 25.3996 23.4588 25.3911C23.4588 25.3826 23.4588 25.3741 23.4588 25.3657C23.4588 25.3572 23.4588 25.3487 23.4588 25.3402C23.4588 25.3317 23.4588 25.3232 23.4588 25.3147C23.4588 25.3062 23.4588 25.2978 23.4588 25.2893C23.4588 25.2808 23.4588 25.2723 23.4588 25.2638C23.4588 25.2553 23.4588 25.2468 23.4588 25.2383C23.4588 25.2298 23.4588 25.2213 23.4588 25.2127C23.4588 25.2042 23.4588 25.1957 23.4588 25.1872C23.4588 25.1787 23.4588 25.1702 23.4588 25.1617C23.4588 25.1532 23.4588 25.1446 23.4588 25.1361C23.4588 25.1276 23.4588 25.1191 23.4588 25.1106C23.4588 25.102 23.4588 25.0935 23.4588 25.085C23.4588 25.0765 23.4588 25.0679 23.4588 25.0594C23.4588 25.0509 23.4588 25.0424 23.4588 25.0338C23.4588 25.0253 23.4588 25.0168 23.4588 25.0082C23.4588 24.9997 23.4588 24.9912 23.4588 24.9826C23.4588 24.9741 23.4588 24.9656 23.4588 24.957C23.4588 24.9485 23.4588 24.94 23.4588 24.9314C23.4588 24.9229 23.4588 24.9144 23.4588 24.9058C23.4588 24.8973 23.4588 24.8887 23.4588 24.8802C23.4588 24.8717 23.4588 24.8631 23.4588 24.8546C23.4588 24.846 23.4588 24.8375 23.4588 24.829C23.4588 24.8204 23.4588 24.8119 23.4588 24.8033C23.4588 24.7948 23.4588 24.7862 23.4588 24.7777C23.4588 24.7691 23.4588 24.7606 23.4588 24.7521C23.4588 24.7435 23.4588 24.735 23.4588 24.7264C23.4588 24.7179 23.4588 24.7093 23.4588 24.7008C23.4588 24.6923 23.4588 24.6837 23.4588 24.6752C23.4588 24.6666 23.4588 24.6581 23.4588 24.6495C23.4588 24.641 23.4588 24.6324 23.4588 24.6239C23.4588 24.6154 23.4588 24.6068 23.4588 24.5983C23.4588 24.5897 23.4588 24.5812 23.4588 24.5727C23.4588 24.5641 23.4588 24.5556 23.4588 24.547C23.4588 24.5385 23.4588 24.53 23.4588 24.5214C23.4588 24.5129 23.4588 24.5043 23.4588 24.4958C23.4588 24.4873 23.4588 24.4787 23.4588 24.4702C23.4588 24.4617 23.4588 24.4531 23.4588 24.4446C23.4588 24.4361 23.4588 24.4275 23.4588 24.419C23.4588 24.4105 23.4588 24.4019 23.4588 24.3934C23.4588 24.3849 23.4588 24.3763 23.4588 24.3678C23.4588 24.3593 23.4588 24.3508 23.4588 24.3422C23.4588 24.3337 23.4588 24.3252 23.4588 24.3167C23.4588 24.3082 23.4588 24.2996 23.4588 24.2911C23.4588 24.2826 23.4588 24.2741 23.4588 24.2656C23.4588 24.2571 23.4588 24.2485 23.4588 24.24C23.4588 24.2315 23.4588 24.223 23.4588 24.2145C23.4588 24.206 23.4588 24.1975 23.4588 24.189C23.4588 24.1805 23.4588 24.172 23.4588 24.1635C23.4588 24.155 23.4588 24.1465 23.4588 24.138C23.4588 24.1295 23.4588 24.121 23.4588 24.1125C23.4588 24.104 23.4588 24.0955 23.4588 24.0871C23.4588 24.0786 23.4588 24.0701 23.4588 24.0616C23.4588 24.0531 23.4588 24.0447 23.4588 24.0362C23.4588 24.0277 23.4588 24.0192 23.4588 24.0108C23.4588 24.0023 23.4588 23.9938 23.4588 23.9854C23.4588 23.9769 23.4588 23.9684 23.4588 23.96C23.4588 23.9515 23.4588 23.943 23.4588 23.9346C23.4588 23.9261 23.4588 23.9177 23.4588 23.9092C23.4588 23.9008 23.4588 23.8924 23.4588 23.8839C23.4588 23.8755 23.4588 23.867 23.4588 23.8586C23.4588 23.8502 23.4588 23.8417 23.4588 23.8333C23.4588 23.8249 23.4588 23.8164 23.4588 23.808C23.4588 23.7996 23.4588 23.7912 23.4588 23.7828C23.4588 23.7744 23.4588 23.7659 23.4588 23.7575C23.4588 23.7491 23.4588 23.7407 23.4588 23.7323C23.4588 23.7239 23.4588 23.7155 23.4588 23.7071C23.4588 23.6987 23.4588 23.6904 23.4588 23.682C23.4588 23.6736 23.4588 23.6652 23.4588 23.6568C23.4588 23.6485 23.4588 23.6401 23.4588 23.6317C23.4588 23.6233 23.4588 23.615 23.4588 23.6066C23.4588 23.5983 23.4588 23.5899 23.4588 23.5815C23.4588 23.5732 23.4588 23.5648 23.4588 23.5565C23.4588 23.5482 23.4588 23.5398 23.4588 23.5315C23.4588 23.5232 23.4588 23.5148 23.4588 23.5065C23.4588 23.4982 23.4588 23.4899 23.4588 23.4815C23.4588 23.4732 23.4588 23.4649 23.4588 23.4566C23.4588 23.4483 23.4588 23.44 23.4588 23.4317C23.4588 23.4234 23.4588 23.4151 23.4588 23.4068C23.4588 23.3985 23.4588 23.3903 23.4588 23.382C23.4588 23.3737 23.4588 23.3654 23.4588 23.3572C23.4588 23.3489 23.4588 23.3406 23.4588 23.3324C23.4588 23.3241 23.4588 23.3159 23.4588 23.3076C23.4588 23.2994 23.4588 23.2911 23.4588 23.2829C23.4588 23.2747 23.4588 23.2664 23.4588 23.2582C23.4588 23.25 23.4588 23.2418 23.4588 23.2336C23.4588 23.2254 23.4588 23.2171 23.4588 23.2089C23.4588 23.2007 23.4588 23.1926 23.4588 23.1844C23.4588 23.1762 23.4588 23.168 23.4588 23.1598C23.4588 23.1516 23.4588 23.1435 23.4588 23.1353C23.4588 23.1271 23.4588 23.119 23.4588 23.1108C23.4588 23.1027 23.4588 23.0945 23.4588 23.0864C23.4588 23.0782 23.4588 23.0701 23.4588 23.062C23.4588 23.0538 23.4588 23.0457 23.4588 23.0376C23.4588 23.0295 23.4588 23.0214 23.4588 23.0133C23.4588 23.0052 23.4588 22.9971 23.4588 22.989C23.4588 22.9809 23.4588 22.9728 23.4588 22.9647C23.4588 22.9567 23.4588 22.9486 23.4588 22.9405C23.4588 22.9325 23.4588 22.9244 23.4588 22.9164C23.4588 22.9083 23.4588 22.9003 23.4588 22.8922C23.4588 22.8842 23.4588 22.8762 23.4588 22.8682C23.4588 22.8601 23.4588 22.8521 23.4588 22.8441C23.4588 22.8361 23.4588 22.8281 23.4588 22.8201C23.4588 22.8121 23.4588 22.8041 23.4588 22.7962C23.4588 22.7882 23.4588 22.7802 23.4588 22.7723C23.4588 22.7643 23.4588 22.7563 23.4588 22.7484C23.4588 22.7405 23.4588 22.7325 23.4588 22.7246C23.4588 22.7167 23.4588 22.7087 23.4588 22.7008C23.4588 22.6929 23.4588 22.685 23.4588 22.6771C23.4588 22.6692 23.4588 22.6613 23.4588 22.6534C23.4588 22.6455 23.4588 22.6376 23.4588 22.6298C23.4588 22.6219 23.4588 22.614 23.4588 22.6062C23.4588 22.5983 23.4588 22.5905 23.4588 22.5827C23.4588 22.5748 23.4588 22.567 23.4588 22.5592C23.4588 22.5514 23.4588 22.5435 23.4588 22.5357C23.4588 22.5279 23.4588 22.5201 23.4588 22.5124C23.4588 22.5046 23.4588 22.4968 23.4588 22.489C23.4588 22.4813 23.4588 22.4735 23.4588 22.4657C23.4588 22.458 23.4588 22.4503 23.4588 22.4425C23.4588 22.4348 23.4588 22.4271 23.4588 22.4193C23.4588 22.4116 23.4588 22.4039 23.4588 22.3962C23.4588 22.3885 23.4588 22.3808 23.4588 22.3732C23.4588 22.3655 23.4588 22.3578 23.4588 22.3502C23.4588 22.3425 23.4588 22.3348 23.4588 22.3272C23.4588 22.3196 23.4588 22.3119 23.4588 22.3043C23.4588 22.2967 23.4588 22.2891 23.4588 22.2815C23.4588 22.2739 23.4588 22.2663 23.4588 22.2587C23.4588 22.2511 23.4588 22.2435 23.4588 22.2359C23.4588 22.2284 23.4588 22.2208 23.4588 22.2133C23.4588 22.2057 23.4588 22.1982 23.4588 22.1907C23.4588 22.1831 23.4588 22.1756 23.4588 22.1681C23.4588 22.1606 23.4588 22.1531 23.4588 22.1456C23.4588 22.1381 23.4588 22.1307 23.4588 22.1232C23.4588 22.1157 23.4588 22.1083 23.4588 22.1008C23.4588 22.0934 23.4588 22.0859 23.4588 22.0785C23.4588 22.0711 23.4588 22.0637 23.4588 22.0563C23.4588 22.0489 23.4588 22.0415 23.4588 22.0341C23.4588 22.0267 23.4588 22.0193 23.4588 22.012C23.4588 22.0046 23.4588 21.9973 23.4588 21.9899C23.4588 21.9826 23.4588 21.9752 23.4588 21.9679C23.4588 21.9606 23.4588 21.9533 23.4588 21.946C23.4588 21.9387 23.4588 21.9314 23.4588 21.9241C23.4588 21.9169 23.4588 21.9096 23.4588 21.9023C23.4588 21.8951 23.4588 21.8879 23.4588 21.8806C23.4588 21.8734 23.4588 21.8662 23.4588 21.859C23.4588 21.8518 23.4588 21.8446 23.4588 21.8374C23.4588 21.8302 23.4588 21.823 23.4588 21.8159C23.4588 21.8087 23.4588 21.8015 23.4588 21.7944C23.4588 21.7873 23.4588 21.7801 23.4588 21.773C23.4588 21.7659 23.4588 21.7588 23.4588 21.7517C23.4588 21.7446 23.4588 21.7375 23.4588 21.7305C23.4588 21.7234 23.4588 21.7163 23.4588 21.7093C23.4588 21.7023 23.4588 21.6952 23.4588 21.6882C23.4588 21.6812 23.4588 21.6742 23.4588 21.6672C23.4588 21.6602 23.4588 21.6532 23.4588 21.6462C23.4588 21.6393 23.4588 21.6323 23.4588 21.6254C23.4588 21.6184 23.4588 21.6115 23.4588 21.6046C23.4588 21.5976 23.4588 21.5907 23.4588 21.5838C23.4588 21.5769 23.4588 21.57 23.4588 21.5632C23.4588 21.5563 23.4588 21.5494 23.4588 21.5426C23.4588 21.5358 23.4588 21.5289 23.4588 21.5221C23.4588 21.5153 23.4588 21.5085 23.4588 21.5017C23.4588 21.4949 23.4588 21.4881 23.4588 21.4813C23.4588 21.4746 23.4588 21.4678 23.4588 21.4611C23.4588 21.4543 23.4588 21.4476 23.4588 21.4409C23.4588 21.4342 23.4588 21.4275 23.4588 21.4208C23.4588 21.4141 23.4588 21.4074 23.4588 21.4008C23.4588 21.3941 23.4588 21.3875 23.4588 21.3808C23.4588 21.3742 23.4588 21.3676 23.4588 21.361C23.4588 21.3544 23.4588 21.3478 23.4588 21.3412C23.4588 21.3346 23.4588 21.328 23.4588 21.3215C23.4588 21.3149 23.4588 21.3084 23.4588 21.3019C23.4588 21.2953 23.4588 21.2888 23.4588 21.2823C23.4588 21.2758 23.4588 21.2694 23.4588 21.2629C23.4588 21.2564 23.4588 21.25 23.4588 21.2435C23.4588 21.2371 23.4588 21.2307 23.4588 21.2243C23.4588 21.2178 23.4588 21.2115 23.4588 21.2051C23.4588 21.1987 23.4588 21.1923 23.4588 21.186C23.4588 21.1796 23.4588 21.1733 23.4588 21.167C23.4588 21.1606 23.4588 21.1543 23.4588 21.148C23.4588 21.1417 23.4588 21.1355 23.4588 21.1292C23.4588 21.1229 23.4588 21.1167 23.4588 21.1104C23.4588 21.1042 23.4588 21.098 23.4588 21.0918C23.4588 21.0856 23.4588 21.0794 23.4588 21.0732C23.4588 21.067 23.4588 21.0609 23.4588 21.0547C23.4588 21.0486 23.4588 21.0425 23.4588 21.0363C23.4588 21.0302 23.4588 21.0241 23.4588 21.018C23.4588 21.012 23.4588 21.0059 23.4588 20.9998C23.4588 20.9938 23.4588 20.9878 23.4588 20.9817C23.4588 20.9757 23.4588 20.9697 23.4588 20.9637C23.4588 20.9577 23.4588 20.9517 23.4588 20.9458C23.4588 20.9398 23.4588 20.9339 23.4588 20.928C23.4588 20.922 23.4588 20.9161 23.4588 20.9102C23.4588 20.9043 23.4588 20.8985 23.4588 20.8926C23.4588 20.8867 23.4588 20.8809 23.4588 20.8751C23.4588 20.8692 23.4588 20.8634 23.4588 20.8576C23.4588 20.8518 23.4588 20.846 23.4588 20.8403C23.4588 20.8345 23.4588 20.8288 23.4588 20.823C23.4588 20.8173 23.4588 20.8116 23.4588 20.8059C23.4588 20.8002 23.4588 20.7945 23.4588 20.7888C23.4588 20.7832 23.4588 20.7775 23.4588 20.7719C23.4588 20.7662 23.4588 20.7606 23.4588 20.755C23.4588 20.7494 23.4588 20.7439 23.4588 20.7383C23.4588 20.7327 23.4588 20.7272 23.4588 20.7216C23.4588 20.7161 23.4588 20.7106 23.4588 20.7051C23.4588 20.6996 23.4588 20.6941 23.4588 20.6887C23.4588 20.6832 23.4588 20.6778 23.4588 20.6723C23.4588 20.6669 23.4588 20.6615 23.4588 20.6561C23.4588 20.6507 23.4588 20.6453 23.4588 20.64C23.4588 20.6346 23.4588 20.6293 23.4588 20.6239C23.4588 20.6186 23.4588 20.6133 23.4588 20.608C23.4588 20.6027 23.4588 20.5975 23.4588 20.5922C23.4588 20.587 23.4588 20.5817 23.4588 20.5765C23.4588 20.5713 23.4588 20.5661 23.4588 20.5609C23.4588 20.5557 23.4588 20.5506 23.4588 20.5454C23.4588 20.5403 23.4588 20.5352 23.4588 20.5301C23.4588 20.525 23.4588 20.5199 23.4588 20.5148C23.4588 20.5097 23.4588 20.5047 23.4588 20.4996C23.4588 20.4946 23.4588 20.4896 23.4588 20.4846C23.4588 20.4796 23.4588 20.4746 23.4588 20.4696C23.4588 20.4647 23.4588 20.4597 23.4588 20.4548C23.4588 20.4499 23.4588 20.445 23.4588 20.4401C23.4588 20.4352 23.4588 20.4304 23.4588 20.4255C23.4588 20.4207 23.4588 20.4158 23.4588 20.411C23.4588 20.4062 23.4588 20.4014 23.4588 20.3966C23.4588 20.3919 23.4588 20.3871 23.4588 20.3824C23.4588 20.3777 23.4588 20.3729 23.4588 20.3682C23.4588 20.3636 23.4588 20.3589 23.4588 20.3542C23.4588 20.3496 23.4588 20.3449 23.4588 20.3403C23.4588 20.3357 23.4588 20.3311 23.4588 20.3265C23.4588 20.3219 23.4588 20.3174 23.4588 20.3128C23.4588 20.3083 23.4588 20.3038 23.4588 20.2993C23.4588 20.2948 23.4588 20.2903 23.4588 20.2858C23.4588 20.2814 23.4588 20.2769 23.4588 20.2725C23.4588 20.2681 23.4588 20.2637 23.4588 20.2593C23.4588 20.2549 23.4588 20.2506 23.4588 20.2462C23.4588 20.2419 23.4588 20.2376 23.4588 20.2333C23.4588 20.229 23.4588 20.2247 23.4588 20.2204C23.4588 20.2162 23.4588 20.2119 23.4588 20.2077C23.4588 20.2035 23.4588 20.1993 23.4588 20.1951C23.4588 20.1909 23.4588 20.1868 23.4588 20.1826C23.4588 20.1785 23.4588 20.1744 23.4588 20.1703C23.4588 20.1662 23.4588 20.1621 23.4588 20.1581C23.4588 20.154 23.4588 20.15 23.4588 20.146C23.4588 20.142 23.4588 20.138 23.4588 20.134C23.4588 20.13 23.4588 20.1261 23.4588 20.1222C23.4588 20.1182 23.4588 20.1143 23.4588 20.1104C23.4588 20.1066 23.4588 20.1027 23.4588 20.0988C23.4588 20.095 23.4588 20.0912 23.4588 20.0874C23.4588 20.0836 23.4588 20.0798 23.4588 20.076C23.4588 20.0723 23.4588 20.0686 23.4588 20.0648C23.4588 20.0611 23.4588 20.0574 23.4588 20.0538C23.4588 20.0501 23.4588 20.0464 23.4588 20.0428C23.4588 20.0392 23.4588 20.0356 23.4588 20.032C23.4588 20.0284 23.4588 20.0249 23.4588 20.0213C23.4588 20.0178 23.4588 20.0143 23.4588 20.0108C23.4588 20.0073 23.4588 20.0038 23.4588 20.0003C23.4588 19.9969 23.4588 19.9935 23.4588 19.9901C23.4588 19.9866 23.4588 19.9833 23.4588 19.9799C23.4588 19.9765 23.4588 19.9732 23.4588 19.9699C23.4588 19.9666 23.4588 19.9633 23.4588 19.96C23.4588 19.9567 23.4588 19.9535 23.4588 19.9502C23.4588 19.947 23.4588 19.9438 23.4588 19.9406C23.4588 19.9374 23.4588 19.9343 23.4588 19.9312C23.4588 19.928 23.4588 19.9249 23.4588 19.9218C23.4588 19.9187 23.4588 19.9157 23.4588 19.9126C23.4588 19.9096 23.4588 19.9065 23.4588 19.9035C23.4588 19.9005 23.4588 19.8976 23.4588 19.8946C23.4588 19.8917 23.4588 19.8887 23.4588 19.8858C23.4588 19.8829 23.4588 19.8801 23.4588 19.8772C23.4588 19.8743 23.4588 19.8715 23.4588 19.8687C23.4588 19.8659 23.4588 19.8631 23.4588 19.8603C23.4588 19.8576 23.4588 19.8548 23.4588 19.8521C23.4588 19.8494 23.4588 19.8467 23.4588 19.844C23.4588 19.8414 23.4588 19.8387 23.4588 19.8361C23.4588 19.8335 23.4588 19.8309 23.4588 19.8283C23.4588 19.8257 23.4588 19.8232 23.4588 19.8206C23.4588 19.8181 23.4588 19.8156 23.4588 19.8131C23.4588 19.8107 23.4588 19.8082 23.4588 19.8058C23.4588 19.8034 23.4588 19.8009 23.4588 19.7986C23.4588 19.7962 23.4588 19.7938 23.4588 19.7915C23.4588 19.7892 23.4588 19.7869 23.4588 19.7846C23.4588 19.7823 23.4588 19.78 23.4588 19.7778C23.4588 19.7756 23.4588 19.7734 23.4588 19.7712C23.4588 19.769 23.4588 19.7668 23.4588 19.7647H22.6588C22.6588 19.7668 22.6588 19.769 22.6588 19.7712C22.6588 19.7734 22.6588 19.7756 22.6588 19.7778C22.6588 19.78 22.6588 19.7823 22.6588 19.7846C22.6588 19.7869 22.6588 19.7892 22.6588 19.7915C22.6588 19.7938 22.6588 19.7962 22.6588 19.7986C22.6588 19.8009 22.6588 19.8034 22.6588 19.8058C22.6588 19.8082 22.6588 19.8107 22.6588 19.8131C22.6588 19.8156 22.6588 19.8181 22.6588 19.8206C22.6588 19.8232 22.6588 19.8257 22.6588 19.8283C22.6588 19.8309 22.6588 19.8335 22.6588 19.8361C22.6588 19.8387 22.6588 19.8414 22.6588 19.844C22.6588 19.8467 22.6588 19.8494 22.6588 19.8521C22.6588 19.8548 22.6588 19.8576 22.6588 19.8603C22.6588 19.8631 22.6588 19.8659 22.6588 19.8687C22.6588 19.8715 22.6588 19.8743 22.6588 19.8772C22.6588 19.8801 22.6588 19.8829 22.6588 19.8858C22.6588 19.8887 22.6588 19.8917 22.6588 19.8946C22.6588 19.8976 22.6588 19.9005 22.6588 19.9035C22.6588 19.9065 22.6588 19.9096 22.6588 19.9126C22.6588 19.9157 22.6588 19.9187 22.6588 19.9218C22.6588 19.9249 22.6588 19.928 22.6588 19.9312C22.6588 19.9343 22.6588 19.9374 22.6588 19.9406C22.6588 19.9438 22.6588 19.947 22.6588 19.9502C22.6588 19.9535 22.6588 19.9567 22.6588 19.96C22.6588 19.9633 22.6588 19.9666 22.6588 19.9699C22.6588 19.9732 22.6588 19.9765 22.6588 19.9799C22.6588 19.9833 22.6588 19.9866 22.6588 19.9901C22.6588 19.9935 22.6588 19.9969 22.6588 20.0003C22.6588 20.0038 22.6588 20.0073 22.6588 20.0108C22.6588 20.0143 22.6588 20.0178 22.6588 20.0213C22.6588 20.0249 22.6588 20.0284 22.6588 20.032C22.6588 20.0356 22.6588 20.0392 22.6588 20.0428C22.6588 20.0464 22.6588 20.0501 22.6588 20.0538C22.6588 20.0574 22.6588 20.0611 22.6588 20.0648C22.6588 20.0686 22.6588 20.0723 22.6588 20.076C22.6588 20.0798 22.6588 20.0836 22.6588 20.0874C22.6588 20.0912 22.6588 20.095 22.6588 20.0988C22.6588 20.1027 22.6588 20.1066 22.6588 20.1104C22.6588 20.1143 22.6588 20.1182 22.6588 20.1222C22.6588 20.1261 22.6588 20.13 22.6588 20.134C22.6588 20.138 22.6588 20.142 22.6588 20.146C22.6588 20.15 22.6588 20.154 22.6588 20.1581C22.6588 20.1621 22.6588 20.1662 22.6588 20.1703C22.6588 20.1744 22.6588 20.1785 22.6588 20.1826C22.6588 20.1868 22.6588 20.1909 22.6588 20.1951C22.6588 20.1993 22.6588 20.2035 22.6588 20.2077C22.6588 20.2119 22.6588 20.2162 22.6588 20.2204C22.6588 20.2247 22.6588 20.229 22.6588 20.2333C22.6588 20.2376 22.6588 20.2419 22.6588 20.2462C22.6588 20.2506 22.6588 20.2549 22.6588 20.2593C22.6588 20.2637 22.6588 20.2681 22.6588 20.2725C22.6588 20.2769 22.6588 20.2814 22.6588 20.2858C22.6588 20.2903 22.6588 20.2948 22.6588 20.2993C22.6588 20.3038 22.6588 20.3083 22.6588 20.3128C22.6588 20.3174 22.6588 20.3219 22.6588 20.3265C22.6588 20.3311 22.6588 20.3357 22.6588 20.3403C22.6588 20.3449 22.6588 20.3496 22.6588 20.3542C22.6588 20.3589 22.6588 20.3636 22.6588 20.3682C22.6588 20.3729 22.6588 20.3777 22.6588 20.3824C22.6588 20.3871 22.6588 20.3919 22.6588 20.3966C22.6588 20.4014 22.6588 20.4062 22.6588 20.411C22.6588 20.4158 22.6588 20.4207 22.6588 20.4255C22.6588 20.4304 22.6588 20.4352 22.6588 20.4401C22.6588 20.445 22.6588 20.4499 22.6588 20.4548C22.6588 20.4597 22.6588 20.4647 22.6588 20.4696C22.6588 20.4746 22.6588 20.4796 22.6588 20.4846C22.6588 20.4896 22.6588 20.4946 22.6588 20.4996C22.6588 20.5047 22.6588 20.5097 22.6588 20.5148C22.6588 20.5199 22.6588 20.525 22.6588 20.5301C22.6588 20.5352 22.6588 20.5403 22.6588 20.5454C22.6588 20.5506 22.6588 20.5557 22.6588 20.5609C22.6588 20.5661 22.6588 20.5713 22.6588 20.5765C22.6588 20.5817 22.6588 20.587 22.6588 20.5922C22.6588 20.5975 22.6588 20.6027 22.6588 20.608C22.6588 20.6133 22.6588 20.6186 22.6588 20.6239C22.6588 20.6293 22.6588 20.6346 22.6588 20.64C22.6588 20.6453 22.6588 20.6507 22.6588 20.6561C22.6588 20.6615 22.6588 20.6669 22.6588 20.6723C22.6588 20.6778 22.6588 20.6832 22.6588 20.6887C22.6588 20.6941 22.6588 20.6996 22.6588 20.7051C22.6588 20.7106 22.6588 20.7161 22.6588 20.7216C22.6588 20.7272 22.6588 20.7327 22.6588 20.7383C22.6588 20.7439 22.6588 20.7494 22.6588 20.755C22.6588 20.7606 22.6588 20.7662 22.6588 20.7719C22.6588 20.7775 22.6588 20.7832 22.6588 20.7888C22.6588 20.7945 22.6588 20.8002 22.6588 20.8059C22.6588 20.8116 22.6588 20.8173 22.6588 20.823C22.6588 20.8288 22.6588 20.8345 22.6588 20.8403C22.6588 20.846 22.6588 20.8518 22.6588 20.8576C22.6588 20.8634 22.6588 20.8692 22.6588 20.8751C22.6588 20.8809 22.6588 20.8867 22.6588 20.8926C22.6588 20.8985 22.6588 20.9043 22.6588 20.9102C22.6588 20.9161 22.6588 20.922 22.6588 20.928C22.6588 20.9339 22.6588 20.9398 22.6588 20.9458C22.6588 20.9517 22.6588 20.9577 22.6588 20.9637C22.6588 20.9697 22.6588 20.9757 22.6588 20.9817C22.6588 20.9878 22.6588 20.9938 22.6588 20.9998C22.6588 21.0059 22.6588 21.012 22.6588 21.018C22.6588 21.0241 22.6588 21.0302 22.6588 21.0363C22.6588 21.0425 22.6588 21.0486 22.6588 21.0547C22.6588 21.0609 22.6588 21.067 22.6588 21.0732C22.6588 21.0794 22.6588 21.0856 22.6588 21.0918C22.6588 21.098 22.6588 21.1042 22.6588 21.1104C22.6588 21.1167 22.6588 21.1229 22.6588 21.1292C22.6588 21.1355 22.6588 21.1417 22.6588 21.148C22.6588 21.1543 22.6588 21.1606 22.6588 21.167C22.6588 21.1733 22.6588 21.1796 22.6588 21.186C22.6588 21.1923 22.6588 21.1987 22.6588 21.2051C22.6588 21.2115 22.6588 21.2178 22.6588 21.2243C22.6588 21.2307 22.6588 21.2371 22.6588 21.2435C22.6588 21.25 22.6588 21.2564 22.6588 21.2629C22.6588 21.2694 22.6588 21.2758 22.6588 21.2823C22.6588 21.2888 22.6588 21.2953 22.6588 21.3019C22.6588 21.3084 22.6588 21.3149 22.6588 21.3215C22.6588 21.328 22.6588 21.3346 22.6588 21.3412C22.6588 21.3478 22.6588 21.3544 22.6588 21.361C22.6588 21.3676 22.6588 21.3742 22.6588 21.3808C22.6588 21.3875 22.6588 21.3941 22.6588 21.4008C22.6588 21.4074 22.6588 21.4141 22.6588 21.4208C22.6588 21.4275 22.6588 21.4342 22.6588 21.4409C22.6588 21.4476 22.6588 21.4543 22.6588 21.4611C22.6588 21.4678 22.6588 21.4746 22.6588 21.4813C22.6588 21.4881 22.6588 21.4949 22.6588 21.5017C22.6588 21.5085 22.6588 21.5153 22.6588 21.5221C22.6588 21.5289 22.6588 21.5358 22.6588 21.5426C22.6588 21.5494 22.6588 21.5563 22.6588 21.5632C22.6588 21.57 22.6588 21.5769 22.6588 21.5838C22.6588 21.5907 22.6588 21.5976 22.6588 21.6046C22.6588 21.6115 22.6588 21.6184 22.6588 21.6254C22.6588 21.6323 22.6588 21.6393 22.6588 21.6462C22.6588 21.6532 22.6588 21.6602 22.6588 21.6672C22.6588 21.6742 22.6588 21.6812 22.6588 21.6882C22.6588 21.6952 22.6588 21.7023 22.6588 21.7093C22.6588 21.7163 22.6588 21.7234 22.6588 21.7305C22.6588 21.7375 22.6588 21.7446 22.6588 21.7517C22.6588 21.7588 22.6588 21.7659 22.6588 21.773C22.6588 21.7801 22.6588 21.7873 22.6588 21.7944C22.6588 21.8015 22.6588 21.8087 22.6588 21.8159C22.6588 21.823 22.6588 21.8302 22.6588 21.8374C22.6588 21.8446 22.6588 21.8518 22.6588 21.859C22.6588 21.8662 22.6588 21.8734 22.6588 21.8806C22.6588 21.8879 22.6588 21.8951 22.6588 21.9023C22.6588 21.9096 22.6588 21.9169 22.6588 21.9241C22.6588 21.9314 22.6588 21.9387 22.6588 21.946C22.6588 21.9533 22.6588 21.9606 22.6588 21.9679C22.6588 21.9752 22.6588 21.9826 22.6588 21.9899C22.6588 21.9973 22.6588 22.0046 22.6588 22.012C22.6588 22.0193 22.6588 22.0267 22.6588 22.0341C22.6588 22.0415 22.6588 22.0489 22.6588 22.0563C22.6588 22.0637 22.6588 22.0711 22.6588 22.0785C22.6588 22.0859 22.6588 22.0934 22.6588 22.1008C22.6588 22.1083 22.6588 22.1157 22.6588 22.1232C22.6588 22.1307 22.6588 22.1381 22.6588 22.1456C22.6588 22.1531 22.6588 22.1606 22.6588 22.1681C22.6588 22.1756 22.6588 22.1831 22.6588 22.1907C22.6588 22.1982 22.6588 22.2057 22.6588 22.2133C22.6588 22.2208 22.6588 22.2284 22.6588 22.2359C22.6588 22.2435 22.6588 22.2511 22.6588 22.2587C22.6588 22.2663 22.6588 22.2739 22.6588 22.2815C22.6588 22.2891 22.6588 22.2967 22.6588 22.3043C22.6588 22.3119 22.6588 22.3196 22.6588 22.3272C22.6588 22.3348 22.6588 22.3425 22.6588 22.3502C22.6588 22.3578 22.6588 22.3655 22.6588 22.3732C22.6588 22.3808 22.6588 22.3885 22.6588 22.3962C22.6588 22.4039 22.6588 22.4116 22.6588 22.4193C22.6588 22.4271 22.6588 22.4348 22.6588 22.4425C22.6588 22.4503 22.6588 22.458 22.6588 22.4657C22.6588 22.4735 22.6588 22.4813 22.6588 22.489C22.6588 22.4968 22.6588 22.5046 22.6588 22.5124C22.6588 22.5201 22.6588 22.5279 22.6588 22.5357C22.6588 22.5435 22.6588 22.5514 22.6588 22.5592C22.6588 22.567 22.6588 22.5748 22.6588 22.5827C22.6588 22.5905 22.6588 22.5983 22.6588 22.6062C22.6588 22.614 22.6588 22.6219 22.6588 22.6298C22.6588 22.6376 22.6588 22.6455 22.6588 22.6534C22.6588 22.6613 22.6588 22.6692 22.6588 22.6771C22.6588 22.685 22.6588 22.6929 22.6588 22.7008C22.6588 22.7087 22.6588 22.7167 22.6588 22.7246C22.6588 22.7325 22.6588 22.7405 22.6588 22.7484C22.6588 22.7563 22.6588 22.7643 22.6588 22.7723C22.6588 22.7802 22.6588 22.7882 22.6588 22.7962C22.6588 22.8041 22.6588 22.8121 22.6588 22.8201C22.6588 22.8281 22.6588 22.8361 22.6588 22.8441C22.6588 22.8521 22.6588 22.8601 22.6588 22.8682C22.6588 22.8762 22.6588 22.8842 22.6588 22.8922C22.6588 22.9003 22.6588 22.9083 22.6588 22.9164C22.6588 22.9244 22.6588 22.9325 22.6588 22.9405C22.6588 22.9486 22.6588 22.9567 22.6588 22.9647C22.6588 22.9728 22.6588 22.9809 22.6588 22.989C22.6588 22.9971 22.6588 23.0052 22.6588 23.0133C22.6588 23.0214 22.6588 23.0295 22.6588 23.0376C22.6588 23.0457 22.6588 23.0538 22.6588 23.062C22.6588 23.0701 22.6588 23.0782 22.6588 23.0864C22.6588 23.0945 22.6588 23.1027 22.6588 23.1108C22.6588 23.119 22.6588 23.1271 22.6588 23.1353C22.6588 23.1435 22.6588 23.1516 22.6588 23.1598C22.6588 23.168 22.6588 23.1762 22.6588 23.1844C22.6588 23.1926 22.6588 23.2007 22.6588 23.2089C22.6588 23.2171 22.6588 23.2254 22.6588 23.2336C22.6588 23.2418 22.6588 23.25 22.6588 23.2582C22.6588 23.2664 22.6588 23.2747 22.6588 23.2829C22.6588 23.2911 22.6588 23.2994 22.6588 23.3076C22.6588 23.3159 22.6588 23.3241 22.6588 23.3324C22.6588 23.3406 22.6588 23.3489 22.6588 23.3572C22.6588 23.3654 22.6588 23.3737 22.6588 23.382C22.6588 23.3903 22.6588 23.3985 22.6588 23.4068C22.6588 23.4151 22.6588 23.4234 22.6588 23.4317C22.6588 23.44 22.6588 23.4483 22.6588 23.4566C22.6588 23.4649 22.6588 23.4732 22.6588 23.4815C22.6588 23.4899 22.6588 23.4982 22.6588 23.5065C22.6588 23.5148 22.6588 23.5232 22.6588 23.5315C22.6588 23.5398 22.6588 23.5482 22.6588 23.5565C22.6588 23.5648 22.6588 23.5732 22.6588 23.5815C22.6588 23.5899 22.6588 23.5983 22.6588 23.6066C22.6588 23.615 22.6588 23.6233 22.6588 23.6317C22.6588 23.6401 22.6588 23.6485 22.6588 23.6568C22.6588 23.6652 22.6588 23.6736 22.6588 23.682C22.6588 23.6904 22.6588 23.6987 22.6588 23.7071C22.6588 23.7155 22.6588 23.7239 22.6588 23.7323C22.6588 23.7407 22.6588 23.7491 22.6588 23.7575C22.6588 23.7659 22.6588 23.7744 22.6588 23.7828C22.6588 23.7912 22.6588 23.7996 22.6588 23.808C22.6588 23.8164 22.6588 23.8249 22.6588 23.8333C22.6588 23.8417 22.6588 23.8502 22.6588 23.8586C22.6588 23.867 22.6588 23.8755 22.6588 23.8839C22.6588 23.8924 22.6588 23.9008 22.6588 23.9092C22.6588 23.9177 22.6588 23.9261 22.6588 23.9346C22.6588 23.943 22.6588 23.9515 22.6588 23.96C22.6588 23.9684 22.6588 23.9769 22.6588 23.9854C22.6588 23.9938 22.6588 24.0023 22.6588 24.0108C22.6588 24.0192 22.6588 24.0277 22.6588 24.0362C22.6588 24.0447 22.6588 24.0531 22.6588 24.0616C22.6588 24.0701 22.6588 24.0786 22.6588 24.0871C22.6588 24.0955 22.6588 24.104 22.6588 24.1125C22.6588 24.121 22.6588 24.1295 22.6588 24.138C22.6588 24.1465 22.6588 24.155 22.6588 24.1635C22.6588 24.172 22.6588 24.1805 22.6588 24.189C22.6588 24.1975 22.6588 24.206 22.6588 24.2145C22.6588 24.223 22.6588 24.2315 22.6588 24.24C22.6588 24.2485 22.6588 24.2571 22.6588 24.2656C22.6588 24.2741 22.6588 24.2826 22.6588 24.2911C22.6588 24.2996 22.6588 24.3082 22.6588 24.3167C22.6588 24.3252 22.6588 24.3337 22.6588 24.3422C22.6588 24.3508 22.6588 24.3593 22.6588 24.3678C22.6588 24.3763 22.6588 24.3849 22.6588 24.3934C22.6588 24.4019 22.6588 24.4105 22.6588 24.419C22.6588 24.4275 22.6588 24.4361 22.6588 24.4446C22.6588 24.4531 22.6588 24.4617 22.6588 24.4702C22.6588 24.4787 22.6588 24.4873 22.6588 24.4958C22.6588 24.5043 22.6588 24.5129 22.6588 24.5214C22.6588 24.53 22.6588 24.5385 22.6588 24.547C22.6588 24.5556 22.6588 24.5641 22.6588 24.5727C22.6588 24.5812 22.6588 24.5897 22.6588 24.5983C22.6588 24.6068 22.6588 24.6154 22.6588 24.6239C22.6588 24.6324 22.6588 24.641 22.6588 24.6495C22.6588 24.6581 22.6588 24.6666 22.6588 24.6752C22.6588 24.6837 22.6588 24.6923 22.6588 24.7008C22.6588 24.7093 22.6588 24.7179 22.6588 24.7264C22.6588 24.735 22.6588 24.7435 22.6588 24.7521C22.6588 24.7606 22.6588 24.7691 22.6588 24.7777C22.6588 24.7862 22.6588 24.7948 22.6588 24.8033C22.6588 24.8119 22.6588 24.8204 22.6588 24.829C22.6588 24.8375 22.6588 24.846 22.6588 24.8546C22.6588 24.8631 22.6588 24.8717 22.6588 24.8802C22.6588 24.8887 22.6588 24.8973 22.6588 24.9058C22.6588 24.9144 22.6588 24.9229 22.6588 24.9314C22.6588 24.94 22.6588 24.9485 22.6588 24.957C22.6588 24.9656 22.6588 24.9741 22.6588 24.9826C22.6588 24.9912 22.6588 24.9997 22.6588 25.0082C22.6588 25.0168 22.6588 25.0253 22.6588 25.0338C22.6588 25.0424 22.6588 25.0509 22.6588 25.0594C22.6588 25.0679 22.6588 25.0765 22.6588 25.085C22.6588 25.0935 22.6588 25.102 22.6588 25.1106C22.6588 25.1191 22.6588 25.1276 22.6588 25.1361C22.6588 25.1446 22.6588 25.1532 22.6588 25.1617C22.6588 25.1702 22.6588 25.1787 22.6588 25.1872C22.6588 25.1957 22.6588 25.2042 22.6588 25.2127C22.6588 25.2213 22.6588 25.2298 22.6588 25.2383C22.6588 25.2468 22.6588 25.2553 22.6588 25.2638C22.6588 25.2723 22.6588 25.2808 22.6588 25.2893C22.6588 25.2978 22.6588 25.3062 22.6588 25.3147C22.6588 25.3232 22.6588 25.3317 22.6588 25.3402C22.6588 25.3487 22.6588 25.3572 22.6588 25.3657C22.6588 25.3741 22.6588 25.3826 22.6588 25.3911C22.6588 25.3996 22.6588 25.4081 22.6588 25.4165C22.6588 25.425 22.6588 25.4335 22.6588 25.4419C22.6588 25.4504 22.6588 25.4589 22.6588 25.4673C22.6588 25.4758 22.6588 25.4842 22.6588 25.4927C22.6588 25.5012 22.6588 25.5096 22.6588 25.5181C22.6588 25.5265 22.6588 25.5349 22.6588 25.5434C22.6588 25.5518 22.6588 25.5603 22.6588 25.5687C22.6588 25.5771 22.6588 25.5856 22.6588 25.594C22.6588 25.6024 22.6588 25.6109 22.6588 25.6193C22.6588 25.6277 22.6588 25.6361 22.6588 25.6445C22.6588 25.653 22.6588 25.6614 22.6588 25.6698C22.6588 25.6782 22.6588 25.6866 22.6588 25.695C22.6588 25.7034 22.6588 25.7118 22.6588 25.7202C22.6588 25.7286 22.6588 25.737 22.6588 25.7454C22.6588 25.7538 22.6588 25.7621 22.6588 25.7705C22.6588 25.7789 22.6588 25.7873 22.6588 25.7956C22.6588 25.804 22.6588 25.8124 22.6588 25.8207C22.6588 25.8291 22.6588 25.8375 22.6588 25.8458C22.6588 25.8542 22.6588 25.8625 22.6588 25.8709C22.6588 25.8792 22.6588 25.8875 22.6588 25.8959C22.6588 25.9042 22.6588 25.9126 22.6588 25.9209C22.6588 25.9292 22.6588 25.9375 22.6588 25.9458C22.6588 25.9542 22.6588 25.9625 22.6588 25.9708C22.6588 25.9791 22.6588 25.9874 22.6588 25.9957C22.6588 26.004 22.6588 26.0123 22.6588 26.0206C22.6588 26.0289 22.6588 26.0372 22.6588 26.0454C22.6588 26.0537 22.6588 26.062 22.6588 26.0703C22.6588 26.0785 22.6588 26.0868 22.6588 26.095C22.6588 26.1033 22.6588 26.1116 22.6588 26.1198C22.6588 26.1281 22.6588 26.1363 22.6588 26.1445C22.6588 26.1528 22.6588 26.161 22.6588 26.1692C22.6588 26.1775 22.6588 26.1857 22.6588 26.1939C22.6588 26.2021 22.6588 26.2103 22.6588 26.2185C22.6588 26.2267 22.6588 26.2349 22.6588 26.2431C22.6588 26.2513 22.6588 26.2595 22.6588 26.2677C22.6588 26.2759 22.6588 26.284 22.6588 26.2922C22.6588 26.3004 22.6588 26.3085 22.6588 26.3167C22.6588 26.3248 22.6588 26.333 22.6588 26.3411C22.6588 26.3493 22.6588 26.3574 22.6588 26.3655C22.6588 26.3737 22.6588 26.3818 22.6588 26.3899C22.6588 26.398 22.6588 26.4061 22.6588 26.4143C22.6588 26.4224 22.6588 26.4305 22.6588 26.4386C22.6588 26.4466 22.6588 26.4547 22.6588 26.4628C22.6588 26.4709 22.6588 26.479 22.6588 26.487C22.6588 26.4951 22.6588 26.5031 22.6588 26.5112C22.6588 26.5193 22.6588 26.5273 22.6588 26.5353C22.6588 26.5434 22.6588 26.5514 22.6588 26.5594C22.6588 26.5675 22.6588 26.5755 22.6588 26.5835C22.6588 26.5915 22.6588 26.5995 22.6588 26.6075C22.6588 26.6155 22.6588 26.6235 22.6588 26.6315C22.6588 26.6394 22.6588 26.6474 22.6588 26.6554C22.6588 26.6633 22.6588 26.6713 22.6588 26.6792C22.6588 26.6872 22.6588 26.6951 22.6588 26.7031C22.6588 26.711 22.6588 26.7189 22.6588 26.7269C22.6588 26.7348 22.6588 26.7427 22.6588 26.7506C22.6588 26.7585 22.6588 26.7664 22.6588 26.7743C22.6588 26.7822 22.6588 26.7901 22.6588 26.7979C22.6588 26.8058 22.6588 26.8137 22.6588 26.8215C22.6588 26.8294 22.6588 26.8372 22.6588 26.8451C22.6588 26.8529 22.6588 26.8607 22.6588 26.8686C22.6588 26.8764 22.6588 26.8842 22.6588 26.892C22.6588 26.8998 22.6588 26.9076 22.6588 26.9154C22.6588 26.9232 22.6588 26.931 22.6588 26.9387C22.6588 26.9465 22.6588 26.9543 22.6588 26.962C22.6588 26.9698 22.6588 26.9775 22.6588 26.9853C22.6588 26.993 22.6588 27.0007 22.6588 27.0085C22.6588 27.0162 22.6588 27.0239 22.6588 27.0316C22.6588 27.0393 22.6588 27.047 22.6588 27.0547C22.6588 27.0624 22.6588 27.07 22.6588 27.0777C22.6588 27.0854 22.6588 27.093 22.6588 27.1007C22.6588 27.1083 22.6588 27.1159 22.6588 27.1236C22.6588 27.1312 22.6588 27.1388 22.6588 27.1464C22.6588 27.154 22.6588 27.1616 22.6588 27.1692C22.6588 27.1768 22.6588 27.1844 22.6588 27.192C22.6588 27.1995 22.6588 27.2071 22.6588 27.2147C22.6588 27.2222 22.6588 27.2297 22.6588 27.2373C22.6588 27.2448 22.6588 27.2523 22.6588 27.2598C22.6588 27.2674 22.6588 27.2749 22.6588 27.2824C22.6588 27.2898 22.6588 27.2973 22.6588 27.3048C22.6588 27.3123 22.6588 27.3197 22.6588 27.3272C22.6588 27.3346 22.6588 27.3421 22.6588 27.3495C22.6588 27.3569 22.6588 27.3644 22.6588 27.3718C22.6588 27.3792 22.6588 27.3866 22.6588 27.394C22.6588 27.4013 22.6588 27.4087 22.6588 27.4161C22.6588 27.4235 22.6588 27.4308 22.6588 27.4382C22.6588 27.4455 22.6588 27.4528 22.6588 27.4602C22.6588 27.4675 22.6588 27.4748 22.6588 27.4821C22.6588 27.4894 22.6588 27.4967 22.6588 27.504C22.6588 27.5113 22.6588 27.5185 22.6588 27.5258C22.6588 27.533 22.6588 27.5403 22.6588 27.5475C22.6588 27.5548 22.6588 27.562 22.6588 27.5692C22.6588 27.5764 22.6588 27.5836 22.6588 27.5908C22.6588 27.598 22.6588 27.6052 22.6588 27.6123C22.6588 27.6195 22.6588 27.6267 22.6588 27.6338C22.6588 27.641 22.6588 27.6481 22.6588 27.6552C22.6588 27.6623 22.6588 27.6694 22.6588 27.6765C22.6588 27.6836 22.6588 27.6907 22.6588 27.6978C22.6588 27.7049 22.6588 27.7119 22.6588 27.719C22.6588 27.726 22.6588 27.7331 22.6588 27.7401C22.6588 27.7471 22.6588 27.7541 22.6588 27.7611C22.6588 27.7681 22.6588 27.7751 22.6588 27.7821C22.6588 27.7891 22.6588 27.796 22.6588 27.803C22.6588 27.8099 22.6588 27.8169 22.6588 27.8238C22.6588 27.8307 22.6588 27.8377 22.6588 27.8446C22.6588 27.8515 22.6588 27.8584 22.6588 27.8652C22.6588 27.8721 22.6588 27.879 22.6588 27.8858C22.6588 27.8927 22.6588 27.8995 22.6588 27.9063C22.6588 27.9132 22.6588 27.92 22.6588 27.9268C22.6588 27.9336 22.6588 27.9404 22.6588 27.9471C22.6588 27.9539 22.6588 27.9607 22.6588 27.9674C22.6588 27.9742 22.6588 27.9809 22.6588 27.9876C22.6588 27.9943 22.6588 28.001 22.6588 28.0077C22.6588 28.0144 22.6588 28.0211 22.6588 28.0278C22.6588 28.0345 22.6588 28.0411 22.6588 28.0477C22.6588 28.0544 22.6588 28.061 22.6588 28.0676C22.6588 28.0742 22.6588 28.0808 22.6588 28.0874C22.6588 28.094 22.6588 28.1006 22.6588 28.1071C22.6588 28.1137 22.6588 28.1202 22.6588 28.1268C22.6588 28.1333 22.6588 28.1398 22.6588 28.1463C22.6588 28.1528 22.6588 28.1593 22.6588 28.1658C22.6588 28.1723 22.6588 28.1787 22.6588 28.1852C22.6588 28.1916 22.6588 28.1981 22.6588 28.2045C22.6588 28.2109 22.6588 28.2173 22.6588 28.2237C22.6588 28.2301 22.6588 28.2364 22.6588 28.2428C22.6588 28.2492 22.6588 28.2555 22.6588 28.2618C22.6588 28.2682 22.6588 28.2745 22.6588 28.2808C22.6588 28.2871 22.6588 28.2934 22.6588 28.2996C22.6588 28.3059 22.6588 28.3122 22.6588 28.3184C22.6588 28.3247 22.6588 28.3309 22.6588 28.3371C22.6588 28.3433 22.6588 28.3495 22.6588 28.3557C22.6588 28.3619 22.6588 28.368 22.6588 28.3742C22.6588 28.3803 22.6588 28.3865 22.6588 28.3926C22.6588 28.3987 22.6588 28.4048 22.6588 28.4109C22.6588 28.417 22.6588 28.4231 22.6588 28.4291C22.6588 28.4352 22.6588 28.4412 22.6588 28.4473C22.6588 28.4533 22.6588 28.4593 22.6588 28.4653C22.6588 28.4713 22.6588 28.4773 22.6588 28.4833C22.6588 28.4892 22.6588 28.4952 22.6588 28.5011C22.6588 28.507 22.6588 28.513 22.6588 28.5189C22.6588 28.5248 22.6588 28.5306 22.6588 28.5365C22.6588 28.5424 22.6588 28.5482 22.6588 28.5541C22.6588 28.5599 22.6588 28.5657 22.6588 28.5715C22.6588 28.5774 22.6588 28.5831 22.6588 28.5889C22.6588 28.5947 22.6588 28.6004 22.6588 28.6062C22.6588 28.6119 22.6588 28.6176 22.6588 28.6234C22.6588 28.6291 22.6588 28.6348 22.6588 28.6404C22.6588 28.6461 22.6588 28.6518 22.6588 28.6574C22.6588 28.663 22.6588 28.6687 22.6588 28.6743C22.6588 28.6799 22.6588 28.6855 22.6588 28.691C22.6588 28.6966 22.6588 28.7022 22.6588 28.7077C22.6588 28.7132 22.6588 28.7188 22.6588 28.7243C22.6588 28.7298 22.6588 28.7353 22.6588 28.7407C22.6588 28.7462 22.6588 28.7517 22.6588 28.7571C22.6588 28.7625 22.6588 28.768 22.6588 28.7734C22.6588 28.7788 22.6588 28.7841 22.6588 28.7895C22.6588 28.7949 22.6588 28.8002 22.6588 28.8055C22.6588 28.8109 22.6588 28.8162 22.6588 28.8215C22.6588 28.8268 22.6588 28.8321 22.6588 28.8373C22.6588 28.8426 22.6588 28.8478 22.6588 28.8531C22.6588 28.8583 22.6588 28.8635 22.6588 28.8687C22.6588 28.8739 22.6588 28.879 22.6588 28.8842C22.6588 28.8893 22.6588 28.8945 22.6588 28.8996C22.6588 28.9047 22.6588 28.9098 22.6588 28.9149C22.6588 28.92 22.6588 28.925 22.6588 28.9301C22.6588 28.9351 22.6588 28.9401 22.6588 28.9451C22.6588 28.9501 22.6588 28.9551 22.6588 28.9601C22.6588 28.9651 22.6588 28.97 22.6588 28.975C22.6588 28.9799 22.6588 28.9848 22.6588 28.9897C22.6588 28.9946 22.6588 28.9995 22.6588 29.0043C22.6588 29.0092 22.6588 29.014 22.6588 29.0188C22.6588 29.0237 22.6588 29.0285 22.6588 29.0332C22.6588 29.038 22.6588 29.0428 22.6588 29.0475C22.6588 29.0523 22.6588 29.057 22.6588 29.0617C22.6588 29.0664 22.6588 29.0711 22.6588 29.0757C22.6588 29.0804 22.6588 29.0851 22.6588 29.0897C22.6588 29.0943 22.6588 29.0989 22.6588 29.1035C22.6588 29.1081 22.6588 29.1127 22.6588 29.1172C22.6588 29.1218 22.6588 29.1263 22.6588 29.1308C22.6588 29.1353 22.6588 29.1398 22.6588 29.1443C22.6588 29.1487 22.6588 29.1532 22.6588 29.1576C22.6588 29.162 22.6588 29.1665 22.6588 29.1708C22.6588 29.1752 22.6588 29.1796 22.6588 29.184C22.6588 29.1883 22.6588 29.1926 22.6588 29.1969C22.6588 29.2013 22.6588 29.2055 22.6588 29.2098C22.6588 29.2141 22.6588 29.2183 22.6588 29.2226C22.6588 29.2268 22.6588 29.231 22.6588 29.2352C22.6588 29.2394 22.6588 29.2435 22.6588 29.2477C22.6588 29.2518 22.6588 29.256 22.6588 29.2601C22.6588 29.2642 22.6588 29.2682 22.6588 29.2723C22.6588 29.2764 22.6588 29.2804 22.6588 29.2844C22.6588 29.2885 22.6588 29.2925 22.6588 29.2964C22.6588 29.3004 22.6588 29.3044 22.6588 29.3083C22.6588 29.3123 22.6588 29.3162 22.6588 29.3201C22.6588 29.324 22.6588 29.3278 22.6588 29.3317C22.6588 29.3355 22.6588 29.3394 22.6588 29.3432C22.6588 29.347 22.6588 29.3508 22.6588 29.3545C22.6588 29.3583 22.6588 29.3621 22.6588 29.3658C22.6588 29.3695 22.6588 29.3732 22.6588 29.3769C22.6588 29.3806 22.6588 29.3842 22.6588 29.3879C22.6588 29.3915 22.6588 29.3951 22.6588 29.3987C22.6588 29.4023 22.6588 29.4059 22.6588 29.4094C22.6588 29.413 22.6588 29.4165 22.6588 29.42C22.6588 29.4235 22.6588 29.427 22.6588 29.4305C22.6588 29.4339 22.6588 29.4374 22.6588 29.4408C22.6588 29.4442 22.6588 29.4476 22.6588 29.451C22.6588 29.4543 22.6588 29.4577 22.6588 29.461C22.6588 29.4644 22.6588 29.4677 22.6588 29.4709C22.6588 29.4742 22.6588 29.4775 22.6588 29.4807C22.6588 29.484 22.6588 29.4872 22.6588 29.4904C22.6588 29.4936 22.6588 29.4967 22.6588 29.4999C22.6588 29.503 22.6588 29.5062 22.6588 29.5093C22.6588 29.5124 22.6588 29.5154 22.6588 29.5185C22.6588 29.5215 22.6588 29.5246 22.6588 29.5276C22.6588 29.5306 22.6588 29.5336 22.6588 29.5365C22.6588 29.5395 22.6588 29.5424 22.6588 29.5454C22.6588 29.5483 22.6588 29.5512 22.6588 29.554C22.6588 29.5569 22.6588 29.5598 22.6588 29.5626C22.6588 29.5654 22.6588 29.5682 22.6588 29.571C22.6588 29.5737 22.6588 29.5765 22.6588 29.5792C22.6588 29.582 22.6588 29.5847 22.6588 29.5873C22.6588 29.59 22.6588 29.5927 22.6588 29.5953C22.6588 29.5979 22.6588 29.6006 22.6588 29.6031C22.6588 29.6057 22.6588 29.6083 22.6588 29.6108C22.6588 29.6134 22.6588 29.6159 22.6588 29.6184C22.6588 29.6209 22.6588 29.6233 22.6588 29.6258C22.6588 29.6282 22.6588 29.6306 22.6588 29.633C22.6588 29.6354 22.6588 29.6378 22.6588 29.6401C22.6588 29.6424 22.6588 29.6448 22.6588 29.6471H23.4588ZM23.0588 19.3647H19.7647V20.1647H23.0588V19.3647ZM19.3647 19.7647V26.4216H20.1647V19.7647H19.3647ZM19.3647 26.4216C19.3647 27.1141 18.7994 27.6854 18.08 27.6681L18.0607 28.4679C19.2349 28.4962 20.1647 27.5579 20.1647 26.4216H19.3647ZM23.0588 33.3412H26.3529V32.5412H23.0588V33.3412ZM25.9529 32.9412V46.1176H26.7529V32.9412H25.9529ZM26.3529 45.7176H23.0588V46.5176H26.3529V45.7176ZM23.4588 46.1176V32.9412H22.6588V46.1176H23.4588ZM5.34118 42.8235C5.34118 41.2281 6.63983 39.9294 8.23529 39.9294V39.1294C6.198 39.1294 4.54118 40.7862 4.54118 42.8235H5.34118ZM8.23529 39.9294C9.83076 39.9294 11.1294 41.2281 11.1294 42.8235H11.9294C11.9294 40.7862 10.2726 39.1294 8.23529 39.1294V39.9294ZM11.1294 42.8235C11.1294 44.419 9.83076 45.7176 8.23529 45.7176V46.5176C10.2726 46.5176 11.9294 44.8608 11.9294 42.8235H11.1294ZM8.23529 45.7176C6.63983 45.7176 5.34118 44.419 5.34118 42.8235H4.54118C4.54118 44.8608 6.198 46.5176 8.23529 46.5176V45.7176ZM3.95332 52.8395C4.57833 51.0765 6.26291 49.8118 8.23529 49.8118V49.0118C5.91281 49.0118 3.93367 50.5007 3.1993 52.5722L3.95332 52.8395ZM8.23529 49.8118C10.2077 49.8118 11.8922 51.0765 12.5173 52.8396L13.2713 52.5722C12.5368 50.5007 10.5578 49.0118 8.23529 49.0118V49.8118ZM12.8943 52.3059H3.57631V53.1059H12.8943V52.3059ZM16.6967 52.626C16.4366 51.3498 15.8943 50.1756 15.1387 49.1713L14.4994 49.6522C15.1855 50.5642 15.6771 51.6292 15.9128 52.7858L16.6967 52.626ZM14.819 49.8118H41.181V49.0118H14.819V49.8118ZM40.8613 49.1713C40.1057 50.1756 39.5634 51.3498 39.3032 52.626L40.087 52.7858C40.3229 51.6292 40.8145 50.5642 41.5006 49.6522L40.8613 49.1713ZM39.6951 52.3059H16.3048V53.1059H39.6951V52.3059ZM43.4827 52.8395C44.1077 51.0765 45.7923 49.8118 47.7647 49.8118V49.0118C45.4422 49.0118 43.4631 50.5007 42.7287 52.5722L43.4827 52.8395ZM47.7647 49.8118C49.7371 49.8118 51.4216 51.0765 52.0467 52.8396L52.8007 52.5722C52.0662 50.5007 50.0872 49.0118 47.7647 49.0118V49.8118ZM52.4237 52.3059H43.1057V53.1059H52.4237V52.3059Z" fill="white" mask="url(#path-1-inside-1_1760_1000)"/>
    <path d="M6.78984 3.49297H9.68396V6.38709H6.78984V3.49297Z" fill="url(#paint1_linear_1760_1000)" stroke="white" stroke-width="0.4"/>
    <path d="M10.0828 6.78594H12.9769V9.68006H10.0828V6.78594Z" fill="url(#paint2_linear_1760_1000)" stroke="white" stroke-width="0.4"/>
    <path d="M6.78984 10.0828H9.68396V12.9769H6.78984V10.0828Z" fill="url(#paint3_linear_1760_1000)" stroke="white" stroke-width="0.4"/>
    <path d="M3.49297 6.78594H6.38709V9.68006H3.49297V6.78594Z" fill="url(#paint4_linear_1760_1000)" stroke="white" stroke-width="0.4"/>
    <path d="M44.6688 23.2586H47.5629V26.1527H44.6688V23.2586Z" fill="url(#paint5_linear_1760_1000)" stroke="white" stroke-width="0.4"/>
    <path d="M47.9656 26.5516H50.8597V29.4457H47.9656V26.5516Z" fill="url(#paint6_linear_1760_1000)" stroke="white" stroke-width="0.4"/>
    <path d="M44.6688 29.8484H47.5629V32.7426H44.6688V29.8484Z" fill="url(#paint7_linear_1760_1000)" stroke="white" stroke-width="0.4"/>
    <path d="M41.3758 26.5516H44.2699V29.4457H41.3758V26.5516Z" fill="url(#paint8_linear_1760_1000)" stroke="white" stroke-width="0.4"/>
  </g>
  <defs>
    <linearGradient id="paint0_linear_1760_1000" x1="0" y1="28" x2="56" y2="28" gradientUnits="userSpaceOnUse">
      <stop stop-color="#4A4EBD"/>
      <stop offset="1" stop-color="#222457"/>
    </linearGradient>
    <linearGradient id="paint1_linear_1760_1000" x1="6.58984" y1="4.94003" x2="9.88396" y2="4.94003" gradientUnits="userSpaceOnUse">
      <stop stop-color="#4A4EBD"/>
      <stop offset="1" stop-color="#222457"/>
    </linearGradient>
    <linearGradient id="paint2_linear_1760_1000" x1="9.88281" y1="8.233" x2="13.1769" y2="8.233" gradientUnits="userSpaceOnUse">
      <stop stop-color="#4A4EBD"/>
      <stop offset="1" stop-color="#222457"/>
    </linearGradient>
    <linearGradient id="paint3_linear_1760_1000" x1="6.58984" y1="11.5299" x2="9.88396" y2="11.5299" gradientUnits="userSpaceOnUse">
      <stop stop-color="#4A4EBD"/>
      <stop offset="1" stop-color="#222457"/>
    </linearGradient>
    <linearGradient id="paint4_linear_1760_1000" x1="3.29297" y1="8.233" x2="6.58709" y2="8.233" gradientUnits="userSpaceOnUse">
      <stop stop-color="#4A4EBD"/>
      <stop offset="1" stop-color="#222457"/>
    </linearGradient>
    <linearGradient id="paint5_linear_1760_1000" x1="44.4688" y1="24.7057" x2="47.7629" y2="24.7057" gradientUnits="userSpaceOnUse">
      <stop stop-color="#4A4EBD"/>
      <stop offset="1" stop-color="#222457"/>
    </linearGradient>
    <linearGradient id="paint6_linear_1760_1000" x1="47.7656" y1="27.9986" x2="51.0597" y2="27.9986" gradientUnits="userSpaceOnUse">
      <stop stop-color="#4A4EBD"/>
      <stop offset="1" stop-color="#222457"/>
    </linearGradient>
    <linearGradient id="paint7_linear_1760_1000" x1="44.4688" y1="31.2955" x2="47.7629" y2="31.2955" gradientUnits="userSpaceOnUse">
      <stop stop-color="#4A4EBD"/>
      <stop offset="1" stop-color="#222457"/>
    </linearGradient>
    <linearGradient id="paint8_linear_1760_1000" x1="41.1758" y1="27.9986" x2="44.4699" y2="27.9986" gradientUnits="userSpaceOnUse">
      <stop stop-color="#4A4EBD"/>
      <stop offset="1" stop-color="#222457"/>
    </linearGradient>
    <clipPath id="clip0_1760_1000">
      <rect width="56" height="56" fill="white"/>
    </clipPath>
  </defs>
</svg>